<svg fill="none" height="501" viewBox="0 0 686 501" width="686" xmlns="http://www.w3.org/2000/svg" xmlns:xlink="http://www.w3.org/1999/xlink"><clipPath id="a"><rect height="618" rx="50" width="686"/></clipPath><g clip-path="url(#a)" fill="#fff" opacity=".05"><path d="m12.8255 485.009c-.6577-.986-2.302 0-1.9731.985 1.3154 3.94 1.6443 7.552 1.3154 11.821-.3289 2.955-.9866-1.313-1.3154-2.299-.3289-2.627-.6577-4.925-.98661-7.552 0-.985-1.64429-1.314-1.97315-.328-.98658 3.94-.98658 8.209.32886 12.149.65771 1.971 2.6309 4.269 4.9329 2.956 2.302-1.314 1.9731-5.583 1.9731-7.881.3289-3.612 0-7.224-2.302-9.851z"/><path d="m218.362 550.027c0-.657 0-1.314 0-1.642v-.329-.328c0-2.627.658-4.926.329-7.553 0-1.313 0-2.627 0-3.94 0-.657 0-1.314 0-1.97 0-.329 0-.657 0-.657v-5.911c0-.328-.657-.657-.657-.985s-.329-.657-.658-.985c-.329-1.642-.987-2.955-1.644-4.597-.658-1.971-1.645-3.941-2.631-5.911 0-.328-.329-.328-.329-.657 0-.328-.329-.328-.329-.657 0-.328-.329-.328-.329-.656v-.329c0-.328-.329-.656-.329-.985-.329-.328-.329-.985-.658-1.313 0 0 .001-.329-.328-.329-.329-.328-.329-.656-.658-.985-.329-.657-.987-1.313-1.316-1.97 0-.328-.328-.328-.328-.657-.329-.328-.329-.657-.658-.985l-.329-.328c-.329-.329-.658-.657-.987-.985l-.328-.329h-.329l-3.289-2.298h.658c-.658-.986-.987-1.642-1.644-2.627-3.289-3.613-6.906-6.896-10.853-10.18-3.946-2.955-8.221-5.582-12.825-7.881-3.289-1.642-6.906-2.955-10.195-4.269-12.497-3.94-25.98-3.94-38.476 1.314-7.893 2.298-14.799 6.567-21.047 12.15-.658.656-1.316.985-1.645 1.641-1.644 1.642-3.288 3.612-4.933 5.583-.657.656-.986 1.313-1.6439 1.97-.6577.985-1.6443 1.97-2.302 3.284-.6577.985-1.3154 1.97-1.6443 2.955v.328c-.6577.986-.9865 1.971-1.6443 2.956-.6577 1.313-1.3154 2.627-1.9731 3.612-.3289.328-.3289.985-.6577 1.313-.3289.657-.6577 1.642-.9866 2.299 0 .328-.3289.657-.3289.657 0 .328 0 .328-.3288.657 0 .328.3288.656 0 .985v.985c0 .328-.9866.985-.9866 1.313-.3289.985-.9866 2.299-.9866 3.612 0 .329-.3288.329-.3288.657-23.349.985-47.0269-.328-70.3759 2.956 0-.986 0-1.314 0-1.971 0-.328 0-.657 0-.985 0-.985-.3288-1.313-.3288-1.97 0 0 0-.657 0-.985v-.329s.3288 0 .3288-.328c0-.657.3289-1.313.3289-1.97h-.6577c0-.329-.3289-.985-.3289-1.314-.6577-.985-1.6443-1.97-2.6309-1.313-.6577.328-1.3154.657-1.6443 1.313-.3288.329-.3288.657-.3288.985v.657 3.941c0 .985.3288 2.298.6577 3.283-1.3154 0-2.95974 0-4.27518.329-.32885 0-.65771 0-.65771.328-.65772 0-1.6443.329-1.6443 1.314-2.63087 7.552-.98658 16.747.32886 24.299.65772 3.612 1.6443 8.538 4.93293 10.508 0 .657.3288.985.9865.985 21.7047 5.583 52.2886 4.269 74.9799-.328 5.2618 21.344 19.4025 37.763 37.4895 45.972 13.813 6.239 30.255 7.225 46.698 1.642.987-.328 1.645-1.313 2.302-1.642h.658 1.644c20.39-9.851 35.188-25.941 41.108-45.972 0-.328 0-.328 0-.657.658-1.642 1.315-3.612 1.315-5.254v-.656c0-.657 0-1.642 0-2.299 0-1.314 0-2.299.329-3.612-.329-1.314-.658-1.642-.658-1.97zm-131.5432 6.895c0 .329 0 .329 0 0v.657c-.3289.985-.9866 2.627-.9866 2.627-12.8255 0-25.3221.329-38.1476.329-5.2618 0-10.8524-.329-16.1141-.329h-1.3155c-2.302 0-4.2751 0-6.5772 0-.3288 0-.6577 0-.9865 0-1.3155 0-2.6309 0-4.2752 0-1.3154 0-2.9597 0-4.2752.329 0 0 0-.329-.3288-.657-.6577-.985-1.3155-1.97-1.6443-3.284 0 0 0-.328-.3289-.328 0 0 0-.329-.3288-.657 0 0 0 0 0-.328 0-.329-.3289-.657-.3289-.986-.6577-2.627-1.31544-5.91-1.6443-8.866 0-1.642 0-2.955 0-4.597 0-.328 0-.657 0-.985.32886-2.627.32886-5.254-.65772-7.881-.32886-.985-.65771-1.642-1.31543-2.627h.98657c2.95978.328 5.59058.657 8.22148.657 4.2752.328 8.8792.657 13.1544.657 18.4161.656 36.8322-.329 55.2483-1.314 0 .328-.3289.657-.3289 1.314-.9866 4.268-1.6443 8.866-1.6443 13.134v.657.657 1.97.329c0 .656.3289 1.313.3289 1.97 0 .328-.3289.657-.3289.985v.328.657h.3289c0 1.642 1.6443 2.955 1.9731 4.597 0 0 .6578 0 .6578.329.6577.328.6577.328.6577.656zm123.3222 2.956c-.329 1.313-.658 2.955-1.316 4.269-.328.656-.328 1.313-.657 1.97 0 .657-.329 1.313-.658 1.642 0 .328-.329.657-.329.985-.329.657-.658 1.313-.986 1.97-.329.657-.658 1.314-.987 1.97 0 0 0 .329-.329.329 0 .328-.329.657-.329.985-.329.657-.657 1.313-1.315 1.97-.329.657-.987 1.314-1.316 1.97-.328.657-.657 1.314-1.315 1.642 0 0 0 .329-.329.329-.658.985-1.315 1.641-1.644 2.627 0 .328-.329.328-.329.656-.329.329-.658.985-.987 1.314-.657.657-.986 1.313-1.644 1.97-.986.985-1.973 2.299-2.96 3.284-.657.657-1.644 1.642-2.302 1.97 0 0 0 .328-.328.328l-.329.329-.329.328c-.329.329-.658.657-.987.657-.657.657-1.644 1.313-2.302 1.97-.986.657-1.973 1.642-3.288 2.299-.329.328-.658.328-.987.657-.987.656-1.973 1.313-3.289 1.97 0 0-.328 0-.328.328 0 0-.329 0-.329.329-1.316.656-2.302 1.313-3.618 1.641-1.644.657-2.959 1.314-4.604 1.971-.329 0-.657.328-.657.328-.658.328-.987.328-1.645.657-.657.328-1.644.657-2.302.657-.657.328-1.644.328-2.302.656-1.315.329-2.302.657-3.617.657-.329 0-.329 0-.658 0-.987 0-1.973.328-2.96.328-1.973.329-3.946.329-5.919.329-1.644 0-3.289 0-4.933-.329-.658 0-1.644 0-2.302-.328-.658 0-1.644-.328-2.302-.328-.329 0-.658 0-1.315-.329-.329 0-.658 0-.987-.328-.658 0-1.316-.328-1.973-.657h-.329c-.329 0-.658 0-.987-.328-.329 0-.657-.329-1.315-.329-.329 0-.658-.328-1.316-.328h-.328c-.658 0-.987-.328-1.645-.657-.986-.328-1.973-.656-2.631-.985-.986-.328-1.644-.657-2.63-1.313-.658-.329-1.316-.657-1.974-.985-.986-.329-1.644-.986-2.63-1.642-.987-.657-1.645-.985-2.631-1.642-.658-.657-1.316-.985-1.973-1.642-.329-.328-.987-.657-1.316-.985-.329-.329-.658-.329-.658-.657-.328-.328-.657-.657-.986-.985-.658-.328-.987-.985-1.316-1.314-.657-.656-1.315-1.313-2.302-1.97-.657-.657-1.315-1.642-1.973-2.298-.658-.657-1.315-1.642-1.973-2.299-.329-.657-.987-.985-1.315-1.642-.658-.657-.987-1.313-1.316-1.97-.658-.657-.986-1.642-1.644-2.299-.329-.657-.6579-1.313-.9867-1.97-.3289-.657-.9866-1.642-1.3155-2.299-.3288-.656-.6577-1.641-.9865-2.298-.3289-.657-.6577-1.314-.6577-1.642v-.329c-.3289-.656-.6578-1.313-.6578-1.97-.3288-.985-.6577-2.298-.9865-3.283-.3289-.986-.6578-1.642-.6578-2.627 0-.986-.3288-1.642-.6577-2.627-.3288-.986 0-1.971 0-2.956 0-.328.3289-.657.3289-.985 0-.985-.9866-1.642-.9866-2.627 0-.328-.3288-.657-.3288-.985 0-.657-.3289-1.314-.3289-2.299 0 0 0 0 0-.328-.3289-.328-.6577-.328-.6577-.657l-.6577-.328c0-.329 0-.657 0-.985 0-.657 0-1.314 0-1.971 0-19.045 6.5771-37.763 19.074-50.569.657-.657 1.315-1.642 1.973-1.97 5.919-5.583 13.154-9.852 21.376-13.135h6.906c4.933-.329 9.866-.657 15.127-.329 4.604.329 9.208.985 14.141 2.627.987.329 1.973.657 2.96 1.314 6.577 2.627 12.826 6.239 18.087 10.508 1.645 1.642 2.302 2.955 5.591 4.597 0 .657.329 1.313.658 1.642.657.985 1.315 1.642 1.973 2.627.986 1.313 2.302 2.298 3.288 3.612 2.631 3.612 4.604 7.881 6.249 11.821.329.986.657 1.971.986 3.284.329.985.658 1.642.987 2.627.329.657.329 1.314.657 1.97v.329c.329.985.658 1.97.658 3.284 0 .328.329.985.329 1.313s.329.985.329 1.313c0 .986.329 1.971.329 2.627.329 1.642.329 3.613.329 5.254v5.254 1.642.657 1.97c0 .657-.329 1.642-.329 2.299v.985c0 .328 0 .657-.329.985 0 .657-.329 1.314-.329 1.97 0 .657-.329.986-.329 1.642-1.315.657-1.644.985-1.644 1.314z"/><path d="m684.685 523.1c0-1.642-.658-3.612-.987-4.926 0-.656-.658-.985-1.315-.985-.329-.328-.658-1.313-.987-1.313-2.302-.329-4.604 1.642-6.906-1.642h-5.591-.329c-.657 0-1.315.328-2.302.328-2.959-.328-5.919-.328-8.879-.328-5.59-.329-11.181 0-16.772 0h-.328c-.987 0-2.302 0-3.289 0-1.644 0-3.289 0-5.262 0-.657 0-1.315 0-1.973 0-1.973 0-3.617 0-5.591 0 0 0 0 0-.328 0l-.329-.329s0-.328-.329-.328v.328.329h-.329v-1.314-.328-.328s0-.329-.329-.329v-.328c0-.329-.329-.329-.329-.657s-.329-.328-.329-.657c0-.328-.328-.328-.328-.656 0 0 0-.329-.329-.329v-.328c0-.329-.329-.329-.329-.657 0 0 0-.328-.329-.328-.658-.985-1.315-1.971-1.973-2.956s-1.316-1.642-1.973-2.627c-.329-.328-.329-.656-.658-.656l-.329-.329-.329-.328c-.657-.657-.986-1.314-1.644-1.97 0 0 0 0 0-.329-.658-.985-1.644-1.642-2.302-2.298-.329-.329-.329-.329-.658-.657-.657-.657-1.644-1.642-2.302-2.299-.986-.985-1.973-1.97-2.959-2.627-.987-.985-1.974-1.642-3.289-2.627-.987-.985-2.302-.985-3.289-1.97-.986-.657-2.302-1.642-3.288-1.642-.329-.657-.329-.985-.658-1.313-.329-.329-.329-.657-.658-.657 0 0 0 0-.329 0-.328 0-.328 0-.657 0s-.987 0-1.316-.328c-.657-.329-1.644-.986-2.302-1.642-.329-.329-.657-.657-1.315-.657-.987-.328-1.644-.985-2.631-.985-.329 0-.658-.329-1.315-.329v-.328c0-.328 0-.328 0-.328h-.329s0 0-.329 0c-.658 0-.987 0-1.644 0v.328.328.329l-.329-.657s-.658-.328-.658-.657c0-.328-.329-.656-.329-.656s0-.329-.329-.657v-.329.329.328h-.329s-.328 0-.657-.328c-.329 0-.329 0-.658-.329-.329-.328-.658 0-.987-.328-12.167-3.284-24.993-2.955-36.832 2.299-.658.328-1.644.656-2.302.656-5.262 1.971-10.194 4.926-14.799 8.21 0 0 0 0-.328.328 0 0-.329.329-.658.329-.329.328-.987.656-1.316.985-.657.656-1.315.985-1.973 1.642l-.657.328h-.658s.329.328 0 .328c-.329.329-.658.657-.987.985-.986.986-1.973 2.299-2.959 3.284v.328l-.329.329c-.329.328-.329.328-.658.657 0 .328-.329.328-.329.656-.329.329-.658.986-.986 1.314l-.329.328v.329c0 .328-.658.656-.987.985-.329.328-.658.657-.658.985v.328h-1.644v.329.656.329.328s0 .328-.329.328c0 0 .329.329 0 .329v.328c0 .329-.329.657-.329.657-.328 0-.657 1.642-.986 2.299 0 .328-.329.656-.329.985v.328c-.658.985-.987 1.97-1.644 2.955v.329c-.329.328-.329.985-.658 1.313 0 .329-.987.657-.987.657s-.657.328-.986.328c0 .329.329.657.329.657v.329 1.313c-.329.328-.329.657-.329 1.314v.656.329c0 .328-.329.985-.329 1.313v.657.328c0 .329-.329.657-.329.985 0 .329-.329.657-.329.986-.329 0-.658 0-.986 0-.658 0-1.316.328-1.974.328-.986 0-2.302 0-3.288-.328-.658-.329-.987-.657-1.644-.986l-.329-.328h-2.96v.328.329s-.658.328-.987.657c-.328.328-.986.656-1.315.656h-.329v.985c-.658 0-.986 0-1.644.329-.329 0-.329 0-.658-.329h-.329-4.933-.328c-.987 0-1.645 0-2.631 0-.658 0-1.645 0-2.302 0-.987 0-1.974-.328-3.289-.328-5.591 0-10.852.328-16.443.657-.986 0-1.644-.329-2.631-.329l-.329-.328h-.657-.329-.329s-.329 0-.658 0c-.658 0-.986 0-1.973 0-2.96 0-5.591.328-8.55.328h-.329c-.987 0-1.973 0-2.96 0-.658 0-1.315 0-1.973 0h-2.302c-.329 0-.658 0-.987 0-11.839.329-23.677.657-35.188.986-1.973 0-4.275 0-6.248 0-.658 0-1.644 0-2.302 0-2.96 0-5.919 0-8.879.328-2.96 0-6.248.657-9.208.985 0 0 0 0-.329 0 0 .328-.329.328-.329.328l-.329.329h-.657-.329-.329c-.329 0-.658 0-1.316 0-.328 0-.657 0-.657 0h-.329c-.658 0-1.316 0-2.302 0-.329 0-.987 0-1.316 0h-.328-.329c-.329 0-.658 0-.987 0s-.986 0-1.315 0h-.329-3.289c-.329 0-.658-.657-.986-.657-20.718.328-41.765.657-62.484.985-.986 0-1.644 0-2.63 0-.658 0-1.316 0-1.974 0h-.328c-.329 0-.658 0-.987 0-.987 0-1.973.329-3.289.329-2.631 0-5.261 0-7.892-.329-1.316 0-2.631 0-4.275 0-1.316 0-2.631 0-3.947 0h-7.563c-1.974 0-3.947-.328-6.249-.328-.658 0-1.315 0-1.973 0-2.302 0-4.933.328-7.235.328h-8.55c-4.604 0-8.879 0-13.155 0h-.657s0 0-.329 0c-.987 0-1.644.657-2.631.985-2.631.329-2.631 4.598 0 4.926 1.315 0 2.302.985 3.617.985h8.222c.329 0 .986-.328 1.315 0h6.249 1.644 1.644 2.631 1.644-.657 8.221c4.275 0 8.222 0 12.497-.328 7.892-.329 16.114-.657 24.007-.657 5.919 0 11.51 0 17.429-.328 5.92 0 11.839 0 17.43-.329 11.51-.328 23.349-.328 35.188-.657 8.55 0 17.429-.656 25.979-.656 8.551 0 16.772-.657 25.323-.657h.986c17.43 0 34.859-.328 52.289-.985 5.919 0 11.51.328 17.429.328.329 0 .987.657 1.316.657h7.892 1.973.329c.329-.657.658-1.314 1.316-1.642 1.315-1.313 2.631-.985 4.275-1.642h.658c-.658 3.284-.329 6.568-.329 8.866 0 .657-1.645.985-1.645 1.642 0 .328 0 .657-.328.985-.329 1.97-1.645 4.269-1.645 6.239v.657 2.955.329c0 .985.658 1.642.658 2.627-35.188.657-70.047 1.313-104.906 1.97-11.51.328-23.349.328-34.859.657h-.329c-.329 0-.329-.329-.658-.329h-.329c-4.275 0-8.879-.328-13.154-.328-6.906 0-13.812.328-20.718.657-33.872.328-67.745-.657-101.617 2.627h-.329c-1.645 0-3.289.328-4.933.657-3.289.328-3.289 5.254 0 5.254 1.315 0 2.302.656 3.617.656h.329c46.04 0 92.738-1.642 138.779-2.298 47.026-.985 94.053-1.971 141.08-2.956 3.946 22.658 17.43 40.719 35.846 49.913 14.47 7.224 31.899 8.866 49.329 3.284 2.631-.985 4.933-1.642 7.235-2.955.328 0 .328-.329.657-.329 22.034-10.508 36.504-31.195 39.792-54.182 10.853 2.627 24.007 1.314 34.859 1.314 4.933 0 11.51 0 13.812-4.597 4.276-2.956 5.92-9.523 6.578-14.12 1.644-4.598 1.644-9.523 0-13.792zm-72.021 56.809c-1.315 1.642-2.302 3.283-3.617 4.925-.987 1.314-1.973 2.627-3.289 3.612-.328.329-.657.657-.986.985-5.262 5.583-11.839 10.18-19.074 13.464-.987.328-1.644.657-2.631 1.313h-.329c-1.973.985-4.275 1.642-6.248 2.299-.987.328-1.973.657-2.96.657-.658 0-1.315.328-1.644.328-.658 0-1.316.328-1.973.328 0 0 0 0-.329 0 0 0 0 0-.329.329l-.329.657s0 .328-.329.328h-10.523c-.329 0-.987 0-1.316 0-.986 0-1.644-.328-2.63-.328 0 0-.001 0-.329 0v.328s-.329 0-.658 0c-.658 0-1.316-.328-1.644-.657-.329 0-.658-.328-.987-.328s-.658-.329-.987-.329c-.328 0-.657-.328-.986-.328-.658 0-1.316-.657-1.973-.657-.987-.328-1.645-.656-2.631-.985-.658-.328-1.644-.657-2.302-.985s-1.316-.657-1.973-.657c-4.933-1.97-9.208-4.597-13.484-7.881-.657-.328-.986-.656-1.644-1.313-1.973-1.642-3.617-3.284-5.262-4.926-.657-.657-.986-1.313-1.644-1.97-1.315-1.313-2.302-2.955-3.288-4.269-.329-.657-.658-.985-.987-1.642-.987-1.313-1.973-2.955-2.631-4.269-.329-.656-.986-1.641-1.315-2.298s-.658-1.642-.987-2.299-.658-1.313-.986-1.97c-.329-.985-.658-1.97-.987-2.955-.329-.986-.658-1.642-.987-2.627-.328-.986-.657-1.642-.657-2.627-.329-.986-.329-1.642-.658-2.627-.658-2.627-1.644-5.254-1.973-7.881 0-.329 0-.986 0-1.314-.329-2.299-.987-4.597-.987-6.896v-.656c0-.986.658-1.971.658-2.956s.329-2.298.658-3.284c0-.985.329-1.97.657-3.283 2.96-23.972 18.088-44.988 41.108-53.197 13.154-1.642 25.651-2.627 39.134 2.627 17.101 6.568 30.584 21.016 36.832 38.091 6.577 20.688 3.289 41.704-7.564 58.123zm65.772-44.002c-.329 1.313-.986 2.626-1.315 3.94-.329.657-.329.985-.658 1.642-.658 1.642-1.644 3.284-1.973 4.597 0 .328-.329.985-.329 1.314-14.141 3.94-29.268-.986-43.409 1.97.657-9.523-.329-19.046-3.618-28.569 0-.328-.329-.656-.329-.985 1.316.329 2.631.329 3.947.657 1.315 0 2.631.328 4.275.328 14.799 1.642 30.913 1.971 44.725.329-.658 4.925-.329 9.851-1.316 14.777z"/><path d="m51.9598 416.05c-1.3155 2.955-4.9329 4.597-7.2349 6.239-3.6175 1.97-7.2349 3.941-11.1813 5.254-3.9463.985-12.8255.985-9.8657-5.582.3288-.329.3288-.985.6577-1.314.3289-.328.3289-.657.6577-.985 0-.328.3289-.328.6577-.657.3289-.328.3289-.328.6577-.656.9866-.986 1.9732-1.642 3.2886-2.299.3289-.328.9866-.328 1.3155-.657.3288-.328.9866-.328 1.3154-.657 1.6443-.656 2.9597-.985 4.604-1.313 2.302-.657 4.2752-.985 5.9195-1.314.6577 0 .9866 0 .9866.329.3288.328 0 .985-.3289 1.313-3.2886.985-6.5772 2.956-9.5369 4.926-.9866.657-2.6309 1.313-3.6174 2.299-.6578.656-1.3155 1.313-1.6443 1.641v.329.657h.3288.6577c.6578 0 1.3155-.329 1.9732-.329 1.6443-.328 3.2886-.985 4.9329-1.642 1.6443-.656 3.2886-1.313 4.604-2.298.9866-.657 1.9732-.985 2.9597-1.642.6578-.329 1.3155-.985 2.3021-1.314 1.3154-.656 1.9731-1.642 1.9731-3.612-.9866.329-1.6443-.985-.9866-1.642.3289-.328.6577-.656.9866-.656.6577-.329.9866-.329 1.6443-.329h.3289s.3288 0 .3288.329c0 0 .3289 0 .3289.328l.3288.328c.3289.329.3289.657.6578 1.314.3288 1.313.3288 2.627 0 3.612z"/><path d="m70.3759 411.453c-.3289.328-.3289.328-.6578.328 0 0 0 0-.3288 0-.3289.328-.6577.657-.9866.657-.6577.328-1.3154.657-1.9731.985-1.9732.985-4.2752 1.313-6.2484 1.313-.3288 0-.6577 0-.9865-.328-.9866-.328-1.6443-.657-1.9732-1.313-.3289-.329-.3289-.329-.6577-.657 0 0-.3289-.329-.3289-.657 0 0 0 0 0-.328v-.329c0-.328 0-.328 0-.656 0-.329 0-.657 0-.986 0-.656.3289-.985.6577-1.641.3289-.329.3289-.657.6578-.986.3288-.328.3288-.656.6577-.656.3288-.329.3288-.657.6577-.657 0-.328.3289 0 .3289-.328h.3288v-.329s.3289 0 .3289-.328c.3288 0 .3288-.329.6577-.329.6577-.328 1.3154-.656 2.302-.985.3289 0 .9866-.328 1.3154-.328h1.3155c1.6443 0 2.302 2.627.3288 3.284-1.6443.328-3.2886.985-4.604 2.298-.3288.329-1.3154.985-.9866 1.642.3289.657.9866.329 1.6443.329 2.302-.329 7.8926-1.314 7.5638-4.598 0-.328 0-.985.6577-.985h.3289.3288s0 0 .3289.329c1.6443 2.627.6577 4.925-.6577 6.239z"/><path d="m646.208 488.292c0-.328 0-.328 0 0-.329-.328 0-.328 0 0zm34.53-26.598c-1.644-3.284-4.275-5.254-7.892-5.911-.329-50.569 0-101.139-2.302-151.709-.329-7.881 0-18.06-.329-27.911 1.315-10.18 1.973-20.688-3.947-28.569-2.63-3.284-5.919-5.911-9.537-7.553 0-.328-.328-.656-.986-.656s-1.316-.329-1.644-.329c-1.316-.328-2.631-.656-3.947-.985-18.087-3.612-37.49-3.284-55.906-4.269-12.167-.656-24.006-.985-36.174-1.313 0-.657 0-1.642 0-2.299 0-1.642.329-3.612.657-5.254 5.92.329 12.168.329 18.088.329 9.208 0 18.745.328 27.953-1.642.657.328 1.315 0 2.302-.329.329 0 .329-.328.658-.328.328 0 .328 0 .657-.328.658 0 .987-.657.987-.985 16.443-12.15 11.51-38.749 10.194-56.809-1.644-25.285-5.919-50.898-14.798-74.8695-13.483-36.1211-43.41-81.43677-84.188-89.9745-.658 0-1.316 0-1.644.328374-.329 0-.658 0-.987.328374-17.758 8.209352-35.188 18.060552-52.289 27.583452-14.141 7.881-30.583 15.1052-42.751 25.9415-2.96-10.1796-1.316-28.8969-14.799-31.8523-7.235-1.6418-15.456 3.6122-21.705 6.2391-9.865 3.9405-19.402 8.2094-28.939 12.8066-21.047 9.8513-42.094 20.6876-62.155 32.1807-18.416 10.8363-41.107 21.3443-56.234 37.1062-.329 0-.658.328-.658.985-4.275 21.673-5.591 43.674-2.631 65.675-6.577 4.597-12.497 9.523-18.745 14.777-4.933 4.269-13.483 9.194-14.799 16.419-1.644 9.194 5.591 11.164 13.155 11.164 19.731 2.299 40.449 2.299 60.181.985-.329 2.299-.658 4.598-1.316 6.568 0 .985-.328 1.642-.657 2.627-37.161 0-74.651-.329-111.155 3.284-9.208-.657-18.745.656-26.637 5.582-11.51 7.224-14.799 20.359-18.087 32.837-9.209 35.465-15.128 73.885-13.155 110.662-29.2683 4.269-62.483 13.464-87.4763 29.554-24.66443 16.09-13.48323 43.017-8.55034 66.332-2.63087 1.313-4.93288 2.627-6.90604 3.94-.32886.329-.657717.985-.657717 1.314-3.946313 10.508 1.644297 25.284 7.234897 34.151.65772.985 1.31544.985 1.9732.985.3288 0 .3288-.329.6577-.329 0 0 0-.985.3288-.985h4.6041.6577c1.9731 0 4.2751.329 6.5772 0 .9865-.328 1.9731 0 2.9597-.328.6577 0 1.3154 0 1.9731-.329.6578 0 1.3155-.328 1.9732-.328.6577-.328 1.3154-.328 1.9731-.657.6578-.328 1.3155-.328 1.6443-.656h.3289c.6577-.329 1.3154-.657 1.9732-.986.6577-.328 1.3154-.656 1.9731-.985.6577-.328 1.3155-.656 1.9732-.985.9865-.657 2.302-1.313 3.2886-2.298 3.6174-2.956 4.2751-7.225 3.9463-11.822 0-.985-.3289-2.298-.3289-3.284 0-1.313-.3289-2.298-.6577-3.283 0-.985-.3289-1.642-.6577-2.299-.3289-.657-.3289-1.642-.6577-2.299 0-.656-.3289-.985-.3289-1.641v-.329c0-.328 0-.657-.3289-.657 0-.328-.3288-.656-.3288-.985v-.328c0-.328-.3289-.985-.3289-1.314 0 0 0 0 0-.328s-.3288-.657-.3288-.985c-.3289-.657-.6578-1.314-.9866-1.97-.3289-.329-.6577-.657-.6577-.985-.3289-.329-.6578-.657-.9866-.986-.6577-.656-1.3155-.985-1.9732-1.313-.3288-.328-.6577-.328-.9865-.328h-.3289c-.3289 0-.6577-.329-1.3154-.329-1.3155-.328-2.6309-.657-4.2752-.657-.9866 0-1.9732 0-3.2886 0-.3289 0-.6577 0-1.3154 0-.6578 0-.9866.657-1.3155.657-.3288 0-.6577.657-.9865.657l-.3289-.328v-.329s0 0-.3289 0c-.9865 0-1.6443.657-2.6308.657-.6578 0-.3289 0-.9866 0-.9866.328-2.302.328-2.302.657v-.657h-1.9732c-.9866 0-1.6443.985-2.6309.985-.3288 0-.9865.657-1.3154.985-.3288.329-.6577.329-.9866.329v.328-.328s0 0 0-.329c0 0 0 0 0-.328 0-1.314 0-2.299-.3288-3.612 0-1.314-.3289-2.627-.6577-3.941-.3289-2.627-.98662-5.254-1.64434-7.881-.32886-2.298-.98658-4.597-1.31544-6.896-.32885-1.641-.65771-3.283-.65771-4.597-.32886-2.955-.65772-5.582-.32886-8.538 0-.985 0-1.641.32886-2.627 0-.656 0-.985.32885-1.641 0-.329.32886-.329.32886-.657 0-.657.65772-1.314.65772-1.97v-1.971c3.28856-11.821 15.45636-17.732 27.29526-22.986 23.6779-10.508 48.3423-17.075 73.6641-22.001.658 0 .987-.328 1.316-.657l.658-.656c.328-.657.328-1.642 0-2.299.986-28.897 2.302-56.809 7.892-85.049 2.631-12.807 4.933-25.941 9.208-38.091 5.92-16.419 17.759-20.031 31.571-21.673 38.805.985 77.939-1.642 116.745-2.627 41.765-.985 83.53-.985 125.295-.985 41.765.328 83.53.657 125.295 2.298 20.389.986 40.779 1.642 61.168 2.627 17.758.986 36.503 3.284 54.591 2.627 4.932 1.314 9.865 3.284 13.154 7.225.658.656.986 1.313 1.644 1.642.658.985 1.316 1.97 1.973 3.283.329.329.329.657.658 1.314.329.985.658 1.642.987 2.627 2.631 8.209 1.973 18.717 2.302 27.255.986 19.046 1.644 37.763 2.302 56.809.657 21.672.986 43.673 1.315 65.346 0 1.314.329 2.627.658 3.612v.657.657c0 13.135.986 26.598.986 39.733v2.299c-.657 0-1.315 0-1.973 0 0 0 0 0-.329 0h-1.973c-.329 0-.329 0-.657 0 0 0 0 0-.329 0h-.329c-.329 0-.987 0-1.316 0h.329s0 0-.329 0h-.328-.987-.329-1.644l-.329.328s0 0-.329 0-.329 0-.658 0c-.328 0-.328 0-.657 0-.658 0-1.316 0-1.974.328-.986.329-2.302.657-3.288.985-.987.329-1.973.657-2.631.985v.329l-.658.328v.329h-.329s-.328 0-.328.328c0 0 .328 0 .328.328-.328.329 0 .985 0 1.314-.986 1.97-1.315 3.94-1.644 5.911 0 .656-.329.985-.329 1.313v1.642 1.313 3.284c0 3.941.987 7.553 1.973 10.837 0 .328.329.656.329.985.329.656 0 .985.329 1.642v.328h.329.329.658c1.644 2.627 4.604 3.284 7.563 3.612.658 0 1.316-.328 1.973-.328 1.974 0 3.947.328 6.249 0 .658 0 .986 0 1.644-.329.987 0 2.302.329 3.946 0h-.328-.329v.329c0 .328.329.656.329.985 0 0 .657.328.657.657l-.657.328c0 .328.328.328.328.657 0 .328.329.985.329 1.313v2.955c0 .329-.329.986-.329 1.314 0 4.926.329 9.523.329 14.448v1.314c0 3.284 4.933 3.612 5.591.657 0-.329 0-.329 0-.657s0-.657 0-.985c0-5.254-.329-10.508-.658-15.762-.329-2.627-.329-5.582-.986-8.209.986-.329 1.973-.657 2.959-.986 4.604 0 5.92-4.597 6.249-8.537-1.973-5.583-.987-13.464-3.618-19.046zm-659.0333 17.732c2.9598-.657 6.9061-1.642 9.8658-.985 7.2349 1.314 7.5637 6.239 8.5503 11.493.6577 3.284 2.6309 8.538 1.6443 11.493-1.9731 4.926-6.2483 6.568-10.8523 7.881-6.2484 1.971-12.8255 2.956-19.0738 4.269-2.30206-4.597-4.60408-9.523-5.59065-14.448-.98658-4.926-.98658-9.852-2.30202-14.777 5.91947-1.642 11.83897-3.941 17.75837-4.926zm514.9933-251.534c-.329 1.313-.658 2.298-.658 3.612-.986 0-1.973 0-2.959 0-43.739-1.314-87.806-2.627-131.544-2.956-35.846-.328-71.691 0-107.537.329.329-.657.658-1.314.329-1.971-.329-1.313-.658-2.626-.658-3.94 0-.985.329-1.642.329-2.627 39.792 4.269 80.57 1.97 120.691 2.299 40.779.328 81.557.985 122.336.985 0 1.313 0 2.955-.329 4.269zm17.429-3.612c0 .328-.328.656-.328.985-.658 1.97-.987 4.597-.987 6.895-3.946 0-7.893 0-11.839 0h-.986c.328 0 .328-1.97.328-2.955.329-1.97 0-3.94-.328-5.582 1.644-.985 3.288-3.284 0-4.269h.328c-.328-.328-.657-.328-1.315-.328-41.436-.986-82.873-.657-124.309-1.314-41.107-.328-83.53-3.284-124.308.657-.987 0-1.316 1.313-.658 1.642-1.973 2.627-1.973 5.91-.329 9.194v.329s0 0 0-.329c-3.617 0-7.235 0-11.181 0h-.987s.329-.985.329-1.642c.329-2.955 0-5.582-.329-8.866.329-.657.329-1.642-.329-2.298 0-.329-.986-.329-1.644-.329-17.43-.328-35.188-.328-52.617.657-2.96-.328-5.92 0-8.88-.328-.328 0-.657 0-.986 0 0 0 0 0-.329 0 0 0 0 0-.329 0h-.658c-.328 0-.328-.329-.657-.329-3.947-1.642-5.92-6.567-2.96-10.508 1.644-1.97 3.946-3.94 5.919-5.582 7.893-6.568 15.786-13.135 22.692-20.359.986-.329 1.644-.986 1.644-1.971-.329-21.672-.658-43.017 1.315-64.689 14.799-6.568 28.282-17.4041 42.423-25.6135 15.128-9.1945 30.584-17.7322 46.369-25.9415 15.786-8.2094 31.9-15.762 48.014-22.9862 8.879-3.9405 21.704-9.8513 29.926-5.9108h.329c3.288 1.6419 5.59 5.254 6.577 11.1648.987 5.2539 1.315 9.5228 3.946 14.12.329.6568.658.9852 1.316.9852h.657.987c16.772-5.254 31.899-16.7471 47.027-25.2848 17.101-9.5229 34.859-18.389 51.631-28.24021.329 0 .329-.32838.329-.32838.328 0 .657.32838.657.32838 14.799 8.86611 28.94 16.41871 41.108 29.22531 13.812 14.1201 24.335 30.5388 31.899 48.5993 8.55 19.3744 13.483 40.0614 16.114 61.0774.329 2.299.658 4.926.987 7.881 3.288 21.016 8.221 56.809-7.564 66.989 0 0 0 0-.329.328-1.973 0-3.946 0-5.591 0-6.248 0-12.496.985-18.744.985-10.853.328-22.034-.328-33.215.985-.987 0-1.645 1.314-.329 1.642v-.328h.658c2.63.328 5.261 1.642 7.892 1.642 1.644-.329 1.644 0 1.644 0zm121.021 260.072c-4.933 1.642-9.537 2.955-14.47 2.955-3.618 0-7.564-2.627-10.853.657 0 0-.657-.985-.657-1.314v-7.881c0-.328 0-.328 0-.656 0-.985 0-1.971 0-2.956 0-.656 0-1.313 0-1.642 0-3.94 0-8.537 0-11.493v-.328h.657 8.551c1.973-.328 4.275-.328 6.248-.657h5.92c.657 0 1.315 0 1.973.329.329 0 .329 0 .657.328 0 0 .329 0 .329.328.329 0 .329.329.658.329s.329.328.658.656c.329.329.329.657.657 1.314.987 1.97.329 4.926.329 7.224v5.911.985.985 1.314.328c0 .328.329.328.329.657 0 0 .329 0 .329.328v.985c0 .329-.329.329-.329.657v.328c-.658-.328-.658 0-.986.329.328 0 .328-.329 0 0z"/><path d="m218.691 366.465c-.329 0-.657.657-.657.657s.328 0 .328-.328c.329.328.658 0 .329-.329zm0 0c-.329 0-.657.657-.657.657s.328 0 .328-.328c.329.328.658 0 .329-.329zm0 0c-.329 0-.657.657-.657.657s.328 0 .328-.328c.329.328.658 0 .329-.329zm0 0c-.329 0-.657.657-.657.657s.328 0 .328-.328c.329.328.658 0 .329-.329zm0 0c-.329 0-.657.657-.657.657s.328 0 .328-.328c.329.328.658 0 .329-.329zm0 0c-.329 0-.657.657-.657.657s.328 0 .328-.328c.329.328.658 0 .329-.329zm0 0c-.329 0-.657.657-.657.657s.328 0 .328-.328c.329.328.658 0 .329-.329zm0 0c-.329 0-.657.657-.657.657s.328 0 .328-.328c.329.328.658 0 .329-.329zm6.906-41.703c-.329-15.762 1.645-38.091-8.221-51.555 0-.328-.329-.657-.329-.985-.658-.657-1.315-.985-1.644-1.642 0 0 0 0 0-.328 0 0-.329-.329-.658-.329-8.222-6.567-20.718-6.239-30.913-5.91-7.892.328-24.335-2.299-30.255 4.925-.329 0-.329.329-.658.657-10.852 18.061-14.469 40.39-17.1 61.078-1.973 13.791-8.879 37.106 1.315 49.256 0 0 0 .328.329.328l.329.329c.329.328.658.656.987.985.657.656 1.315.656 2.302.656 14.14 6.24 31.57 5.254 46.369 4.598 9.537-.329 24.006.985 30.255-7.553.329 0 .986-.328 1.315-.657 4.275-4.597 5.262-8.537 5.92-15.105 0-1.313.328-2.627.328-4.269 0-1.313 0-2.627.329-4.269 0-1.313 0-2.955 0-4.268 0-1.314 0-2.627 0-3.941.329-7.553.329-14.777 0-22.001zm-4.933 29.554v2.298.329 1.313c0 .657 0 1.314-.328 1.97v1.314c0 .657-.329 1.642-.329 2.298 0 .986-.329 1.971-.658 2.627v.329s0 0-.329 0h-.329s0 0-.329 0l-.328.985c0 .328.328.657.328.985v.985.657.328.329.328c-.328.328-.328.657-.328.985 0 .329-.329.657-.329.985-.329.657-.658 1.642-.987 2.299-23.02 9.194-49 3.94-73.007 2.627 0-.328-.328-.328-.328-.657-.329-.328-.658-.985-1.316-1.642-.986-1.642-1.644-3.94-1.973-6.239-.329-.657 0-1.642 0-2.627v-2.627c-.987-.328-1.644-.657-1.644-.985v-.328c.329-.329.657-.985.657-1.314 0-.985-.657-1.97-.657-2.955 0-.328 0-.657-.329-1.314-.329-.656-.658-.985-.658-1.641 0-.329-.986-.657-.986-.986v-1.97c.657 0 .986 0 1.644-.328.329 0 .658 0 .658-.329 0 0 .986 0 .986-.328-.658 0-1.315 0-1.644-.328-.658 0-.329-.329 0-.329s.658-.328.658-.328l.657-.328v-.657c0-.329-.657-.329-.657-.657s-.329-.657-.329-.657c0-.656.657-.985.657-1.642l.329-.328c0-.985-.329-1.642-.329-2.627 0-.328-.328-.985 0-1.313.329-1.971.329-3.613.658-5.583 0-.657.329-1.642.329-2.298 0-.329 0-.986.329-1.314v-.328c0-.657.329-.985.329-1.642 0-.329 0-.329 0-.657s.329-.985.329-1.313c.328-.657.328-1.642.328-2.299 0-.985.329-1.642.658-2.627 0-.657.329-1.314.329-1.97.329-1.314.329-2.299.658-3.284s.329-1.97.657-2.955c2.631-16.091 7.893-30.868 12.497-46.301 9.866-2.299 21.047-3.612 32.228-2.955-13.154 23.314-25.98 46.629-36.832 70.928-.658 1.314 1.315 2.627 1.973.985 0 0 .329-.328.329-.656 3.289-5.911 6.248-11.493 9.537-17.404 0 0 0-.329.329-.329 1.644-2.955 2.96-5.582 4.604-8.537v-.329c.986-2.298 2.302-4.268 3.617-6.567 6.577-12.807 13.483-25.285 20.39-37.763 0 0 0 0 0-.328 7.563.656 14.798 2.298 21.375 5.253 1.316 4.598 2.302 9.195 3.289 13.792-.658.985-1.644 2.299-2.302 3.284l-.329.328c-.658 1.971-.658 2.299-.986 2.627 0 .329-.329.657-.329.657-.329.328-.329.657-.658.985-.658.985-1.315 2.299-1.973 3.284s-1.316 2.299-1.973 3.284c-.658.985-1.316 2.298-1.974 3.283-.657 1.314-1.315 2.299-1.973 3.613-.329.985-.986 1.641-1.315 2.627 0 .328-.329.656-.329.985v.328c0 .328-.329.328-.329.657-.658 1.313-1.315 2.627-1.973 4.269-.329.328-.329.985-.658 1.313-.657 1.314-1.315 2.627-1.644 3.941-1.644 3.94-3.617 7.881-5.262 11.821v.328c-.329.986-.657 1.642-.986 2.627-.658 1.642-1.316 3.284-1.973 4.926-.329.657-.658 1.314-.987 1.97-.658 1.971-1.644 3.612-2.302 5.583-.658 1.313 1.644 2.298 2.631.985 6.248-10.837 11.51-22.33 17.1-33.494 3.618-7.225 7.564-14.449 10.853-21.673.986 8.866 1.315 18.06 1.644 27.255.658 9.194 2.302 21.016 1.644 32.181zm-1.973 12.149c-.329 0-.657.657-.657.657s.328 0 .328-.328c.329.328.658 0 .329-.329zm0 0c-.329 0-.657.657-.657.657s.328 0 .328-.328c.329.328.658 0 .329-.329zm0 0c-.329 0-.657.657-.657.657s.328 0 .328-.328c.329.328.658 0 .329-.329zm0 0c-.329 0-.657.657-.657.657s.328 0 .328-.328c.329.328.658 0 .329-.329zm0 0c-.329 0-.657.657-.657.657s.328 0 .328-.328c.329.328.658 0 .329-.329zm0 0c-.329 0-.657.657-.657.657s.328 0 .328-.328c.329.328.658 0 .329-.329zm0 0c-.329 0-.657.657-.657.657s.328 0 .328-.328c.329.328.658 0 .329-.329z"/><path d="m216.718 397.333c0-.329-.329-.657-.329-.986-.329-.656-.657-.985-1.315-1.641-.658-.657-1.644-1.314-2.631-1.971-.329-.328-.987-.328-1.316-.656v.328c-.328 0-.986.328-1.315.328h-1.644c-.329 0-.658 0-.658 0-.987 0-1.973-.328-2.631-.328-.986 0-2.302 0-3.288.328h-.329c-7.564 1.314-15.457 2.627-23.02 4.926-.329 0-.658.328-.658.328s0 0-.329 0l-.329.329c0 .328-.329.328-.329.656v.329h-.329v.328.329.328.328c0 2.627 1.645 5.583 5.262 6.568 5.262.985 11.181-.657 16.443-1.314 4.604-.656 12.168-.328 16.443-2.627.987-.328 1.644-.985 1.973-1.642.329-.328.329-.656.658-.985 0-.328.329-.328.329-.656 0-.329 0-1.642-.658-2.627zm-14.47 4.268c-1.973.329-3.946.329-5.919.657-1.973.329-3.946.657-5.92.985-.986 0-11.51 1.642-11.181-1.313 3.946-.329 7.564-.985 11.51-1.97 2.96-.657 5.92-.985 8.551-1.642 3.288-.657 4.932-2.299 7.234.656 2.631 2.956-.986 1.971-4.275 2.627z"/><path d="m346.617 507.01c-.328 0-.328 0 0 0-.328.328-.328.328-.328.328v.328h.328zm4.933-116.902c0-2.298 0-4.597 0-6.895 0-4.598 0-9.195 0-13.792-.329-29.882-.986-61.078-7.892-89.975-.658-15.433-20.718-21.672-37.49-23.314-4.275-.329-8.551-.329-11.839-.329-3.946 0-9.208.329-15.128.986-1.644 0-2.959.328-4.604.656-.657 0-1.644.329-2.302.329-2.631.328-5.261.985-7.892 1.642-2.631.656-5.262 1.313-7.564 1.97-1.644.657-3.289.985-4.604 1.642-.658.328-.987.328-1.316.656-1.315.657-2.63 1.314-3.946 2.299-.329.328-.986.657-1.315.985-.658.657-1.316 1.314-1.973 1.97-.329.329-.658.657-.987.985-2.302 2.627-3.617 5.911-3.617 9.852-3.947 16.747-1.974 36.121-1.974 52.868 0 20.031.658 40.39 1.316 60.421.329 7.881.658 16.09.986 23.971.329 7.881.987 16.09 1.316 23.971v.657c0 1.642.329 3.612.329 5.254v1.97c0 .985 0 1.971.329 3.284v1.314c0 1.641.328 3.283.328 5.254.658 12.149.987 24.956 2.96 37.106 0 1.313 0 2.955.329 4.269v.328c0 .328 0 .657.329.985l-.329.329c0 .328.329.656.658.985 0 .656.657.985.657 1.642.658 2.298 1.316 4.597 1.974 6.895.657 1.642 2.63 1.642 3.617.657.329.329.658.657.987.985.328.329.657.657.986.985.658.657 1.316.986 1.973 1.314.987.657 1.973 1.313 2.96 1.642.329 0 .658.328.987.328s.657.329.986.329c.658.328 1.316.656 2.302.985.658.328.987.328 1.645.656.657.329 1.644.329 2.302.657.657 0 .986.329 1.644.329h.986.329.329c.658 0 .987 0 1.644.328h.329.329.329.329.329.329c.986 0 2.302.328 3.288.328h.987v-.328h1.315l.329.328h1.315 2.631.329 1.973.329.987 1.315.658.329.986.329.658 1.315 1.645c1.315 0 2.631 0 3.617-.328 12.497-.657 31.571 1.642 41.765-7.224l.658-.657c.329-.328.329-.985.658-.985l.329-.657v.328c.328-.328.328-.328.657-.328s.329-.328.658-.657h.329c.329-.328.329-.656.658-1.313v-.329h-.329l-.329-.328h.329.329 1.315 1.315v-.657-1.97-.985c0-.657 0-.985 0-1.642 0 0 0 0 0-.328 1.316-6.896 2.302-14.12 3.289-21.345 0-1.641-.329-3.283-.329-4.925 0-.329 0-.657 0-.657.658-5.254.329-10.836.329-16.09v-.657c0-.985.987-1.97.987-2.955 0-1.314.328-2.627.328-4.269s.329-3.284.658-5.254c.329-2.299.658-4.597.658-7.224 0-.986.986-1.971.986-2.956v-.985c-.328-15.434-1.644-30.539-1.973-45.316zm-8.221 44.988v3.612 4.597c0 4.597-.658 9.194-.987 13.792v.656c-.657 9.195-1.315 18.061-2.302 26.927v5.582c0 1.642.658 3.613.658 5.583-1.973 7.881-5.919 14.777-15.785 17.404-1.316.328-2.631.656-3.618.656-.657 0-.986 0-1.644.329-.329 0-.658 0-.658 0-.329 0-.657 0-.657 0-.329 0-.658 0-.658 0-.658 0-.987 0-1.644 0 0 0-.329 0-.658 0 0 0 0 0-.329 0h-.329c-.329 0-.658 0-.986 0-.987 0-1.645 0-2.631 0-1.973 0-3.947 0-5.92 0h-7.564c-.657 0-1.644 0-2.302 0-.986 0-1.644 0-2.63 0-.658 0-1.316 0-1.645 0s-.986 0-1.315 0c-1.316 0-2.302 0-3.618 0h-2.959c-.987 0-1.974 0-2.96 0-.658 0-1.316 0-1.973 0-.987 0-1.973 0-2.631 0-.987 0-1.973-.329-2.631-.329-.987 0-1.644-.328-2.631-.328-.329 0-.329 0-.658 0h-.328c-.329 0-.329 0-.658 0h-.329c-.658 0-1.315-.328-1.973-.328-.329 0-.329 0-.658 0s-.329 0-.658 0v-.329c-.328 0-.657-.656-.657-.656s-.329.328-.658.328c-.658-.328-1.315-.328-1.973-.328h-.987c-.657 0-1.315-.657-1.973-.986 0 0 0 0-.329 0s-.329-.328-.658-.328c-.328 0-.328-.328-.657-.328-.658-.329-1.316-.657-1.973-1.314-.329-.328-.329-.328-.658-.657l-.329-.328c-.329-.328-.658-.657-.987-.985.987-18.061-2.959-37.435-4.275-55.167-1.315-20.031-2.631-40.062-3.288-60.092-.658-14.449-.658-28.897-.987-43.017 0-4.926 0-9.523 0-14.449 0-17.075 2.302-36.121-.329-53.196 5.591-16.748 35.846-17.076 50.973-17.733 17.101-.656 39.135 1.642 44.725 18.718v6.896 5.91 5.911c.658 29.882 4.275 60.421 4.933 90.303.329 14.777-.329 29.882-.329 44.987v-1.313z"/><path d="m327.215 283.058c.986-1.313.658-3.283-1.316-3.94-21.704-6.896-48.013-8.209-68.731 1.97-.658.329-.658.657-.658 1.314-12.168 29.225-7.564 71.914 2.631 101.139.658 1.642 1.973 1.97 3.289 1.642.328.328.986.328 1.315.657.987.328 1.973.656 2.96 1.313.986.328 1.973.657 2.959.985.987.329 1.974.657 3.289.657 1.973.328 4.275.657 6.577.985.987 0 2.302.328 3.289.328.986 0 1.973 0 2.96.329 7.234.328 14.798-.329 21.704-.657 7.235-.328 20.39 1.314 22.692-7.553h.657.658s.329 0 .329-.328l.329-.328c0-.329.329-.657.329-.985 4.932-29.882 8.55-69.616-5.262-97.528zm2.631 63.377v4.269 2.955c0 1.313 0 2.627-.329 3.94 0 1.971-.329 3.612-.329 5.583-.329 2.298-.329 4.925-.658 7.224v.328c-.329 2.627-.657 5.254-.986 7.881 0 .329-.658.657-.658.985-20.389 7.225-42.094.657-63.799 2.627-1.644-8.866-3.288-17.403-4.604-25.941-1.315-8.538-2.302-17.404-2.631-26.27-.328-15.762 3.289-31.196 2.96-46.958 12.826-1.97 24.665-3.283 36.503-3.283-11.181 13.463-20.06 28.897-26.966 44.987v.328c0 .329 0 .657.329.657.329.328.329.328.658.328 0-.328.328-.328.328-.656l.329-.329c1.316-2.298 2.631-4.925 4.275-7.224.329-.657.987-1.642 1.316-2.299.329-.656.986-1.641 1.315-2.298 1.645-2.627 3.618-5.582 5.262-8.209s3.289-4.926 5.262-7.553c.329-.657.986-1.314 1.315-1.97 1.316-1.642 2.631-3.612 3.947-5.254.986-1.314 1.973-2.627 2.959-3.941 1.316-1.97 2.631-3.94 4.275-5.582 7.564.328 15.457 1.642 23.678 3.612 0 6.239.987 12.478 1.973 18.717l-.328.329c-11.51 19.374-22.034 39.076-32.229 59.107-.328.328-.328.657 0 .985v.328.329l.329.328h.329.329.658c.657 0 .986-.328 1.315-.657 10.853-18.06 21.047-36.121 30.584-54.838.987 6.239 1.973 12.478 2.302 18.717.329 4.598.329 8.866.329 13.464.658 1.642.658 3.612.658 5.254z"/><path d="m330.503 396.348c-2.302-.657-4.604-.657-7.235 0l-1.315.328c-.329 0-.987 0-1.315.328-.658 0-1.316.329-2.302.329-.658 0-.987 0-1.316.328-4.275.657-8.879.328-12.825 2.299-.658.328-.987 1.313-.987 1.97l-.329.328c-2.96 4.269 1.644 8.538 6.249 9.195 3.288.328 7.234-.657 10.523-.985 3.946-.657 9.208-.657 12.497-3.284 3.617-3.284 3.288-9.195-1.645-10.836zm-4.604 7.88c-1.315.657-3.946.657-5.59.986-1.973.328-15.786 3.283-14.47-1.642 6.577.657 13.154-2.956 19.731-2.627.658 0 1.316-.329 1.974-.329.986 2.627.657 3.941-1.645 3.612z"/><path d="m652.127 276.163c-.328-1.642-.986-1.642-2.302-4.926-.657 0-1.644-.985-2.63-1.642-.658-.328-.987-.328-1.645-.328-.657-.329-1.644-.657-2.302-.985-.986-.329-1.973-.329-2.959-.329v-.328l-.329-.329c-5.262-1.313-10.524-1.641-15.786-1.313-40.778-2.299-81.885-.985-122.664-.985-4.275 0-8.55 0-12.825 0-12.826 0-25.651-.329-38.477-.657-29.268-.657-58.866-.985-87.476 2.299-.987 0-1.645.656-1.645 1.313-3.288 1.97-4.275 6.896-3.288 10.18.657 2.298 3.288 4.925 5.919 5.911-3.617 13.791-3.617 39.076 8.55 47.942-.657 11.165.329 22.33.658 33.166.329 12.15-.329 24.3.987 36.449-.329 0-.658 0-.987 0-1.644.329-1.973 1.971-1.644 3.284-1.644 7.881 3.288 17.076 10.523 21.673 0 .657 0 1.313.987 1.642 5.919 2.298 12.168 3.94 18.416 5.254.658 0 1.315.328 1.973.328 1.316.329 2.96.329 4.275.657 1.645.328 2.96.328 4.604.657 3.289.328 6.578.656 9.866.985 1.316 0 2.631.328 3.946.328 25.651 1.314 52.618-1.642 76.296-2.627 41.107-1.97 81.886-3.94 122.993-5.911l.329.329h.329c1.315.328 2.631 0 3.946-.329 1.644-.656 3.289-1.97 4.604-3.283.329-.329.658-.657.987-.985.986-1.314 1.644-2.627 2.631-3.941.328-.657.657-1.313.986-1.97.658-1.314.658-2.627.987-3.941.329-.656 0-1.313 0-1.642 0-2.955.657-6.239-.329-9.194-.329-.657-.658-1.314-1.316-1.642 0 0 0 0 0-.328-.328-22.33-.657-46.301-3.288-68.959.329 0 .658-.328 1.315-.328.329 0 .658-.329.658-.329.329-.328.987-.328 1.315-.656 1.974-.985 4.276-2.627 5.591-3.941 4.933-5.254 6.248-12.806 6.577-21.016 0-.328 0-.656 0-.985 0-2.627 0-5.254 0-7.881-.329-4.925-.658-9.851-.658-13.792h-.328c.657 0 .986-.328 1.644-.656.329-.329.986-.985.986-1.314l.329-.328c.329-.329.329-.657.658-.985.329-.329.329-.985.329-1.314-.987-.985-.987-1.97-1.316-2.298zm-289.067 0c-.657-1.971.329-3.613 1.316-5.254 45.054 4.597 91.423 1.313 136.805 1.313 42.423 0 85.832 1.642 128.255-1.313 3.289.656 6.249 1.313 9.208 2.298 1.316.657 3.947 1.314 4.933 2.299.987.985.987 2.298.987 3.284-.987 0-2.302.328-2.96.985-46.04-2.627-92.409-.985-138.45-.985-23.349 0-46.698 0-70.047 0-21.047 0-42.422-1.314-63.141.985l-.328-.329c-2.302-1.313-5.262-.656-6.578-3.283zm265.718 71.585c0 .657.658.985.658 1.642l-.658.328c0 .329-.328.657-.328.986 0 2.626.328 4.925.328 7.224 0 .328.329.985.329 1.313v.985c0 3.612-.328 6.896 0 10.508v3.941c0 1.313 0 2.627.329 3.612 0 1.313 0 2.627.329 3.94 0 .986 0 1.642.329 2.627.329 2.299.658 4.269.986 6.568v.985c0 .657.001.985.329 1.642 0 .657 0 .985.329 1.642.329 1.642.658 3.283.987 4.925-43.081-3.283-87.477-.328-130.228-.328-22.363 0-45.054-.328-67.416-.328-18.088 0-36.833-.986-54.92.656.329-3.283 0-6.239.329-9.851 0-.985-.329-2.298-.329-3.284 0-.656 0-1.641 0-2.298s0-.985 0-1.642c0-.985 0-2.299 0-3.284 0-.328 0-.328 0-.657 0-.328.987-.328 1.644-.656.987-.329 1.645-.329 1.645-.657v-.657c-.658-.985 0-2.298 0-3.284-.658-.656 0-.985 0-1.641-.658-.329-1.316-.986-1.645-1.314-1.644-1.642-1.644-3.284-1.644-4.926.987-.328 1.315-.656 1.644-.985.329-.328.329-.656 0-.985-.329-.328-.657-.985-.657-1.313 0-.329.328-.657 0-.985-.329-.986-.987-2.299-.987-3.284 0-1.642 0-3.284 0-4.926v-.328c0-1.642 0-3.284-.329-4.926 0 0 .329-.328.329-.657-.329-2.626-.658-5.582-.987-8.209 0-.657-.328-.985-.328-1.642l.657-.328h.658c0-.328-.658-.657-.658-.985h-.329-.328c-.329 0-.658 0-.658 0 0-.329-1.316-.329-1.316-1.642v-.328c0-.329 1.316-.657 1.316-.986.329 0 .329.657.658.657.328 0 .328.329.657.329 5.92.985 11.182-.986 15.128-4.926.658-.657 1.315-1.314 1.973-1.97.329-.329.658-.657.658-.985.329-.329.329-.657.657-.986.658-.985.987-1.641 1.316-2.627.329-.328.329-.656.658-1.313 2.63 7.224 8.221 12.478 17.758 11.821 8.879-.656 14.141-5.582 17.43-12.149 2.63 10.179 8.55 17.732 20.718 17.403 8.55-.328 13.812-5.254 17.1-11.821 2.96 5.911 8.551 9.523 16.114 9.194 8.551-.656 14.141-5.254 17.759-11.493 2.631 7.553 8.221 12.479 18.416 11.822 9.866-.657 15.785-6.239 18.745-13.792 0 .328 0 .328.329.657 1.973 8.209 8.55 13.463 17.1 13.135 10.195-.329 15.786-6.896 18.745-15.434 3.947 9.195 13.155 15.434 24.007 11.493 5.591-1.97 9.537-6.567 12.168-12.15 2.302 6.896 6.906 12.479 13.812 12.479-.329 3.94-.658 7.552-.987 11.493v1.313 1.314c-.986 0-.329.328-.329.328zm-227.241-59.107c0-.985.986-2.299.986-3.612v-.329c9.866 0 18.745-.656 28.611-.656v3.94 1.97 1.642 1.642c0 1.97.329 3.612.329 5.582v3.613 3.612c0 .656 0 1.642-.329 2.298v.985c0 .657-.329.985-.329 1.642s-.329 1.314-.657 1.642c0 .328-.329.657-.329.985 0 .329-.329.657-.329.985 0 .329 0 .329-.329.657 0 .328-.329.657-.329.985 0 .329-.329.657-.329.985-1.973 4.598-5.261 8.21-9.537 9.195 0 0-.328 0-.657 0-.658 0-1.316 0-1.973 0-.987 0-1.974 0-3.289-.657-12.497-3.612-10.524-19.374-10.524-31.852 0-.985-.657-1.97-.986-2.956 0-.328.329-1.313 0-2.298zm66.429 1.313c0 .329.329.657.329.985v.329 1.313.657c0 .985 0 2.299.329 3.284 0 1.313.329 2.627.329 3.612 0 1.313 0 2.627.329 3.94v2.956 1.642c-.329 11.493-6.906 31.852-22.034 20.687-.329-.328-.657-.328-.986-.657-.329-.328-.658-.328-.658-.656-.329-.329-.658-.657-.987-.985-.328-.329-.328-.329-.657-.657-.329-.329-.329-.329-.658-.657s-.329-.657-.658-.985c-.329-.657-.986-1.314-.986-1.97-.329-.329-.329-.657-.658-.985 0-.329-.329-.657-.329-.986 0-.328-.329-.656-.329-1.313 0 0 0 0 0-.328-.329-.657-.329-1.314-.329-1.971 0-.985-.328-1.642-.328-2.627 0-.328 0-.985 0-1.313 0-.657-.329-1.642-.329-2.299s0-1.642 0-2.298c0-1.314 0-2.956 0-4.269 0-.985 0-1.97 0-2.956 0-.656 0-1.641 0-2.298 0-.329 0-.985 0-1.314 0-.328 0-.656 0-.985 0-.985 0-1.642-.329-2.298v-.329-.328c0-.329 0-.985 0-1.314 0-.328.329-.985.329-1.313 0-.329.329-.657.329-.657 0-.328 0-.985 0-1.313v-.329c0-.985 0-1.642 0-2.955 0 0 0 0 0-.329 0 0-.658-.328-.987-.328l-.987-.328h30.255c0 .328.987.985.987 1.313v-.657c0 .657-.329 1.314-.329 1.971l-.329.328v.328.329c-.657.657-.329.985-.329 1.313zm33.873-.328c0 .985.329 1.642.658 2.627 0 .328.328.657.328.985 0 .985.329 2.299.329 3.284 0 .657 0 1.642.329 2.298 0 .329.329.329.329.657 0 1.314.658 2.627.658 3.941v.328c0 .985-.329 1.642-.658 2.627-.658 8.538-4.933 22.329-14.799 22.658-.657 0-.986 0-1.644 0-.986 0-1.973-.329-2.96-.657-.657-.328-1.315-.657-1.973-.985-.329 0-.329-.328-.658-.328-.328 0-.328-.329-.657-.329l-.329-.328c-.329-.329-.658-.329-.658-.657-2.631-2.627-4.275-7.224-4.933-12.478.329-2.299-.329-4.926-.329-7.224 0-.986.658-1.971.658-2.956 0-1.642 0-3.612 0-5.254 0-.656 0-1.313 0-2.298s0-1.642-.329-2.627c0-.657 0-1.314-.329-1.971 0-.328 0-.328 0-.656 0 0 0-.329 0-.657v-.328c0-.329 0-.329 0-.657 0-.329-.328-.985-.328-1.314-.329-.656-.329-1.313-.658-1.97 0-.328 0-.328 0-.657 0 0 0-.328 0-.656h28.611c0 .985-.658 1.641-.658 2.627-.658 1.313 0 2.298 0 2.955zm38.476 1.642c0 2.955.329 6.239.329 9.194 0 .657-.329 1.642-.657 2.299 0 .657.328 1.313.328 1.97 0 .985.329 1.642.329 2.627s-.657 2.299-.986 3.284c0 .657-.658 1.642-.658 2.298 0 .657-.329 1.314-.658 1.971-.329.656-.329 1.313-.657 1.642-.329 1.313-.987 2.627-1.645 3.94-.329.328-.329.985-.657 1.314 0 .328-.329.328-.329.656 0 .329-.329.329-.329.657-.658.657-1.316 1.314-1.973 1.97-.329.329-.658.657-.987.985h-.329c-.329.329-.658.329-.986.657-.329.329-.658.329-1.316.657-.329 0-.329 0-.658.328-.328 0-.657.329-.986.329-.329.328-.987.328-1.644.328-2.631.657-4.933.657-6.578 0-.328 0-.986-.328-1.315-.328-.329-.329-.658-.329-.987-.657-.328-.328-.657-.328-.986-.657-3.947-3.612-4.933-11.165-5.262-19.046.658-5.254 0-10.836 0-15.761v-.329c0-1.313-.329-2.298-.658-3.284 0-.328-.328-.328-.328-.656 0-.985-.329-1.971-.658-2.956v-.328h30.255v.657.656 3.284c.329.657.986 1.314.986 2.299zm34.859 6.896v6.896c0 1.313 0 2.626-.328 3.94v1.642c0 .657 0 .985-.329 1.642 0 .656 0 .985-.329 1.313 0 .657-.329.985-.329 1.642s-.329.985-.329 1.642c-.329.985-.658 1.97-.986 2.955-.329.329-.329.985-.658 1.314-.329.328-.658.985-.987 1.313-.657.985-1.315 1.971-2.302 2.627-1.315 1.314-2.959 2.299-4.604 2.956-14.141 5.91-14.798-11.165-15.456-20.031 0-1.314 0-2.955-.329-4.269 0-1.97-.329-3.94-.329-6.239 0-.328 0-.985 0-1.314 0-.328 0-.656 0-.985 0-.656 0-1.313-.329-1.97 0-.657-.329-1.313-.329-1.97v-1.314s0 0 0-.328c0-.657-.328-1.314-.328-2.299s0-1.97 0-2.955h28.939c-.329 2.299-.329 4.926-.329 7.553-.329 2.627-.329 4.597-.329 6.239zm8.222-12.15c0-.329 0-.657 0-.985v-.329c9.866 0 19.074-.656 29.268-.656v1.97.328 7.881 1.97 3.284 1.314.656.329.985c0 .985-.328 1.97-.328 2.955v.329c0 .656-.329 1.313-.329 1.641 0 .657-.329 1.314-.329 1.971-.329.985-.329 1.97-.658 2.955-.329.657-.329 1.314-.658 1.97-.328.657-.329 1.314-.657 1.971-.329.656-.658 1.313-.987 1.641-.329.657-.658.986-.986 1.642-4.605 7.225-12.826 8.538-19.403 3.284-3.618-2.955-5.591-7.224-6.906-11.493.329-1.314.329-2.299.329-3.612 0-1.314.328-2.299.328-3.612v-.329c0-2.298.658-4.597.658-6.895 0-1.314.329-2.627.658-3.941v-4.269c0-.985 0-1.97 0-2.955zm-208.168 39.733c-.329-.328-.329 0 0 0-.658-.657-.986-.985-1.315-1.313-.329-.329-.658-.986-.987-1.314s-.329-.657-.658-1.313c0 0 0-.329-.328-.329-.329-.328-.329-.657-.658-.985s-.329-.985-.658-1.313c0-.329-.329-.657-.329-.986 0-.328-.329-.656-.329-.985 0-.656-.328-.985-.328-1.642 0-.328-.329-.985-.329-1.313s-.329-.985-.329-1.314c-.329-.985-.329-2.298-.658-3.612-.329-1.313-.329-2.955-.329-4.268 0-2.299-.329-4.598-.329-6.896 0-.657 0-1.314 0-1.642 0-.329-.657-.657-.657-.985 0-.657-.658-1.642-.658-2.299v-.328c0-.329 0-.657 0-.985 0-.657 0-.986 0-1.642v-1.314c0-.328.658-.328.658-.657 0-.328.329-.985.329-1.313s.328-.657.328-.985c0-.657 0-.657 0-1.314.658 0 .987-.328 1.645-.328 1.973 0 3.946 0 5.919.328.329 0 .658-.328.987-.328h1.315.329 1.315 1.316.658.986 1.316 5.261 5.92.658c0 3.284.328 3.284.328 4.597 0 .329-.657.657-.657.985 0 1.642-.329 3.284-.329 4.926v6.567c.329 4.926.329 9.523-.658 14.449-.329 1.642-.986 3.612-1.973 5.254-.329.657-.658 1.313-1.315 1.97-.329.328-.329.657-.658.985-.329.329-.658.657-.658.985-.329.329-.658.657-.986.985-.658.657-1.316.986-1.974 1.314-2.631 1.642-5.59 1.97-9.208 0-.657-.328-.986-.657-1.644-.985-.329 0-.658-.329-.658-.657.329.328.329 0 .329 0zm259.141 82.422c0 .657-.329 1.313-.329 2.299v.328c-.329.657-.329 1.313-.657 1.97 0 .329-.329.657-.329.985 0 .329-.329.657-.658.985v.329l-.329.328c0 .329-.329.657-.329.657-.986 1.642-2.302 2.955-3.617 4.597 0 0 0 0-.329 0-40.779 1.642-81.557 3.612-122.336 5.583-20.06.985-39.792 1.97-59.852 1.641-18.416 0-36.832-2.627-54.919-2.955-3.618-2.955-7.235-5.582-9.866-9.194-.329-.329-.329-.657-.658-.986 0 0 0 0 0-.328s-.329-.328-.329-.657c0 0 0-.328-.329-.328-.329-.657-.657-1.314-.986-1.97-.329-.657-.658-1.314-.987-1.971-.329-.328-.329-.656-.658-1.313-.328-.985-.657-1.642-.986-2.627 19.403 2.299 39.463.985 58.866.985 22.362 0 44.724 0 67.416-.328 43.738-.329 88.792 2.955 132.53-.657-.329 1.642-.329 2.299-.329 2.627zm2.96-87.676c-1.316 1.314-2.631 2.955-4.275 4.269-3.618-1.314-7.235-2.627-10.853-3.612-1.644-1.642-2.302-3.941-2.631-6.896-.328-2.627-.328-5.582-.657-8.209 0-.986.329-1.971.329-2.956v-.328c0-.329 0-.985 0-1.314v-.328-.328-.329-1.97s0 0 0-.328c0 0 0 0 0-.329 0-.985 0-1.97 0-2.955v-.657c0-.657 0-.985 0-1.642 0-.656 0-.985 0-1.642v-.328c0-.985 0-1.97-.329-2.955 0 0 0 0 0-.329 0-.328 0-.328 0-.656 0-.657-.329-1.642-.329-2.299 7.564-.328 15.127-.657 23.02-.985.987 9.851 2.631 19.702-.329 29.225-.986 2.627-1.973 5.254-3.946 7.881.329-.328.329-.328 0 0z"/><path d="m479.148 156.634c0-.328 0-.985 0-1.313 0-1.314-.329-2.627-.658-3.941-.329-1.313-.658-2.298-.987-3.612-.657-1.642-1.315-2.955-1.973-4.269-.329-.656-.986-1.641-1.315-2.298s-.987-1.314-1.316-1.97c-.657-.986-1.315-1.642-1.973-2.299s-.986-1.314-1.644-1.642c-.987-.985-2.302-1.97-3.618-2.955-.657-.329-1.315-.985-1.973-1.314-.657-.328-1.315-.985-1.973-1.313-.658-.329-1.315-.657-2.302-.985-.658-.329-.986-.657-1.644-.657-.658-.328-.987-.328-1.645-.657h-.328l-1.974-.657c-.657-.328-1.315-.328-1.973-.328-.657 0-1.315-.328-1.973-.328-1.644-.329-3.288-.329-4.604-.657-.986 0-1.644 0-2.631 0-4.933 0-10.194.657-14.798 2.299 0 0-.329 0-.329.328-17.101 3.94-33.544 17.404-28.282 36.778 5.919 21.672 33.872 31.524 54.262 26.27.986-.329 1.973-.657 2.63-.985.658-.329 1.645-.657 2.302-.986.329 0 .658-.328.987-.656.329 0 .658-.329.987-.657.657-.328.986-.657 1.644-.985 2.302-1.314 4.275-2.627 6.248-4.269.658-.657 1.316-1.314 1.973-1.97.658-.657 1.316-1.314 1.974-1.97.328-.329.657-.657.986-.986.329-.328.658-.985.658-.985l.329-.328c0-.328.329-.328.329-.328.328-.329.328-.657.328-.986 0-.328 0-.328 0-.656.329-.657.987-1.314 1.316-1.971 0-.328.329-.328.329-.656.329-.329.329-.985.657-1.314v-.328c0-.329.329-.985.329-1.314 0-.328.329-.985.329-1.313.329-.657.329-1.642.658-2.299.329-1.313.329-2.298.658-3.612 0-.328 0-.657 0-.985 0-2.299 0-2.955 0-3.941zm-23.349 26.927c-15.128 6.239-36.504 2.299-47.027-11.165-18.416-23.314 5.262-36.778 24.007-43.673 0 0 .328 0 .328-.329 12.497-1.313 25.323.985 33.873 10.837 13.483 15.433 6.906 36.778-11.181 44.33z"/><path d="m444.289 132.992c-1.316-.329-1.974 1.313-.987 1.97 9.208 4.269 18.087 8.537 21.376 19.374 4.604 16.09-12.168 23.643-25.322 22.986-11.51-.328-25.651-6.896-27.296-20.031-1.644-13.792 18.745-18.717 27.953-21.016 1.974-.328.987-3.284-.657-2.955-12.497 2.955-29.926 8.209-30.584 23.971-.329 14.449 16.772 23.643 28.939 24.628 13.155 1.314 30.255-4.925 32.229-20.031 1.973-15.433-12.168-25.613-25.651-28.896z"/><path d="m441.658 145.47c-.987-.329-1.973.985-1.316 1.97.329.657.987 1.97 0 2.299-.986.656-1.973-.657-1.315-1.642.658-1.314-1.316-2.299-1.973-1.314-2.302 3.284.329 7.224 4.275 6.239 3.288-.985 4.604-6.567.329-7.552z"/><path d="m429.49 154.993c-1.644 0-2.302 2.298-.987 2.955 2.302.985.329 2.627-1.315 3.284-1.973.328-4.933-.657-3.618-3.284.658-.985-.657-2.299-1.644-1.314-1.644 1.642-1.644 4.269-.329 5.911 1.645 1.97 4.275 2.627 6.906 1.97 2.302-.656 4.604-2.298 4.933-4.925 0-1.97-1.644-4.597-3.946-4.597z"/><path d="m450.208 155.649c-.987-.328-2.302 0-1.973 1.314.329 1.97 1.644 3.94 0 5.582-1.316 1.314-3.946.657-3.289-1.313.329-1.314-1.644-2.299-2.302-.985-1.644 3.94 1.973 7.881 6.249 6.567 1.973-.657 3.617-2.627 3.946-4.926.329-2.298-.329-5.254-2.631-6.239z"/><path d="m475.201 64.033c-2.631-4.9257-9.537-6.5675-14.469-6.5675-2.302 0-2.631 2.9553-1.316 3.9405-1.973 7.5526-7.235 11.1647-13.812 15.4335-.987.6568-1.315 2.2987-.329 3.2838 3.289 2.627 6.577 5.5823 9.866 8.2093 1.644 1.3135 3.289 3.2838 5.591 3.2838 4.932 0 7.892-8.2094 9.536-11.4931 2.302-4.2689 7.564-10.8364 4.933-16.0903zm-5.59 6.8958c-.987 2.9554-3.618 6.2391-5.262 9.1945-.658.9851-1.315 2.627-2.302 3.6121-.329 1.6419-.987 2.2986-2.631 1.6419-.986 0-1.644-.3284-2.302-.9852-2.631-1.3135-4.933-3.6121-7.235-5.5823 6.577-3.6121 12.826-9.1945 12.497-16.7471 1.644 0 2.96.6568 4.275 1.3135 3.946 1.9702 3.946 4.5972 2.96 7.5526z"/><path d="m521.899 93.2582c-1.315-9.8512-14.141-18.3889-23.349-12.1498-7.892.9851-12.825 9.8512-13.483 17.7322-.987 11.1644 9.537 15.4334 19.403 14.1204 9.865-1.314 18.745-9.195 17.429-19.7028zm-15.785 14.1198c-6.906 1.642-16.772.657-16.114-8.5374.329-6.8959 4.933-14.1201 12.168-14.7768 6.248.3283 12.825.9851 14.798 8.5377 1.316 7.2242-4.604 13.1345-10.852 14.7765z"/><path d="m503.154 89.6461c-.329-.6567-.657-.9851-1.315-.6567-3.946 1.6418-7.564 5.9107-7.235 10.1796.329 4.269 3.617 6.896 7.893 6.239 4.275-.657 8.221-4.597 8.221-9.1944-.329-3.9405-3.617-6.8959-7.564-6.5675zm3.289 7.881c-.658 1.9702-2.96 3.9409-5.262 4.2689-3.288.985-4.933-2.2987-3.617-4.9257.986-2.2986 2.959-3.2837 4.604-4.9256.329 0 .329.3284.657.3284 2.631 0 4.276 2.9554 3.618 5.254z"/><path d="m550.839 147.112c-.658-.657-1.644-.657-2.631-.329-7.564 2.627-11.181-.328-11.181-9.523.986-5.254 4.275-6.239 9.866-2.955 1.315 2.299 4.604.328 3.617-1.97.987-2.299-.329-4.926-.987-6.896-.986-2.627-2.302-4.926-4.604-6.568-.986-.656-1.644-.328-1.973.329-19.402-.329-28.939 23.314-16.772 37.434 4.933 5.911 14.799 10.508 22.363 6.24 5.919-3.284 7.235-11.494 2.302-15.762zm-.329 4.268c0 .329-.329.657-.658.986v.328c-.329.657-.986 1.313-1.315 2.299-.987.985-1.973 2.627-3.289 4.268-3.946 1.642-9.208-.985-12.167-3.283-.329 0-.329-.329-.658-.329-.329-.328-.658-.656-.987-.656-.329-.329-.657-.657-.986-.986-.658-.656-.987-.985-1.316-1.641-.329-.329-.329-.657-.658-.986-.328-.328-.328-.656-.657-.985-5.92-11.164 3.288-24.628 16.443-27.583v.657c0 .656-.329 1.313-.329 1.97l.658.328c0 .329.328.657.986.985.329.329.987.657 1.644.986-.657 0-.986-.329-1.315-.329h-.987c-2.302 0-4.604.985-6.577 2.627-.329.328-.657.657-.986.985-.329.329-.658.657-.658.985-3.946 4.598-4.933 12.479 1.315 18.061 1.316.985 2.302 1.642 3.618 1.97 1.644.657 2.96.657 4.933 1.314v.656c.657 0 1.315-1.313 1.644-1.641.658-.329.987-1.642.987-1.642.986-.985 1.315-.329 1.315.656z"/><path d="m499.208 134.962h-.329c-4.275-.329-8.221 2.955-8.221 7.224s3.617 8.209 7.892 8.209 7.893-4.269 7.564-8.537c-.329-3.941-3.617-7.225-6.906-6.896zm-.987 10.179c-1.973.329-3.617-1.313-3.946-2.955-.329-1.97 1.316-3.612 3.289-3.941 1.315.657 2.959 1.642 3.288 3.284.658 1.642-.657 3.284-2.631 3.612z"/><path d="m511.376 195.711c.329 0 .329.328 0 0 .329.328.329.328 0 0zm26.966-10.508c0-.985-.329-1.97-.986-3.284 0-6.896-6.249-10.179-12.497-10.179-.329 0-.987-.329-1.315-.329-.658 0-1.645 0-2.302 0-1.316 0-2.302.329-3.618.985h-.329s-.329 0-.329.329c0 0-.328 0-.328.328 0 0-.329 0-.329.328-.329 0-.658.329-.987.657 0 0 0 0-.329 0-.986.657-1.973 1.642-2.631 2.627 0 .329-.328.329-.657.657-.329.657-.987.985-1.316 1.642-.329.328-.329.657-.657.985-.329.328-.329.657-.329.985-.658.985-.987 1.97-1.316 3.284 0 .328 0 .657-.329.985 0 .328 0 .657-.328.985-.329.328 0 .657 0 .985v.985.985.657c0 .657-.001.985.328 1.314.329.328.329.656.329.985 0 .328.329.328.329.657l-.658.328s-.328 0-.328.328c.328 0 .986.329.986.329s.329 0 .329.328h.329s.329.328.658.657v.328s0 0 .328.329h.987.329.329v.328h.329c.328 0 .657.328.657.328l.329.329h.329.658.657.329c.329 0 .329 0 .658.328.658 0 1.644.328 2.302.328.329 0 1.315.657 1.315.657h2.302c2.96 0 5.92-1.642 8.222-3.284.658-.328.986-.985 1.315-1.313 0-.328.329-.328.329-.657.987-.657 2.302-1.642 3.289-2.627.329-.328.658-.657.658-.985v-.328s0-.329 0-.657 0-.657 0-.985c2.302.657 2.959-.329 2.959-1.642 0 .328 0 .328 0 0zm-26.308 1.313c.328-4.268 4.275-9.194 8.55-10.836 3.617.657 8.55.657 11.181 3.612 4.933 5.254-1.644 11.822-6.577 13.464-4.933 1.313-13.812.985-13.154-6.24zm-.658 9.195-.329.328h.658-.329z"/><path d="m520.255 179.621c-.329 0-.658.328-.987.656-.657 0-1.315.329-1.973.657-1.315.985-2.302 2.627-2.631 4.597-.328 2.956 2.96 6.896 6.249 5.254.329 0 .329-.328.329-.328 2.63.328 5.59-2.627 5.59-5.254.658-3.612-2.96-6.239-6.577-5.582zm2.96 5.582c-.329 1.313-1.645 1.97-2.96 2.627-.658-.657-1.315-1.314-1.315-2.299 0-1.313 1.973-1.97 2.63-2.298.329 0 .329-.329.658-.329.987.657 1.316 1.314.987 2.299z"/><path d="m385.752 175.023c-2.302-.328-3.618.986-4.933 2.299-2.96 2.955-6.249 4.597-10.524 4.269-.329 0-.657 0-.986.328 0 0 0 0-.329.329l-.329.328c0 .657 0 1.313.329 1.642 0 0 .329 0 .329.328 0 1.97-.329 3.941.657 5.911 0 .328.329.985.329 1.313.658.986 1.316 1.642 2.302 2.299.329 0 .329.328.658.328s.329.657.658.657.329.657.657.657h.987.329c.329 0 .329-.328.658-.328 1.973 0 3.946-.657 6.248-1.642.329 0 .658-.329.987-.657h.328s.329 0 .329-.328c.987-.657 1.973-1.314 2.631-1.971.329-.328.658-.656.987-.656.986-.986 1.973-1.971 2.302-3.284 1.315-3.284-.329-10.836-4.604-11.822zm1.644 10.18c-.658 2.627-3.289 3.94-5.591 4.926-2.302.985-5.59 2.627-7.563.985-1.645-1.314-1.645-3.941-1.974-6.239 1.974 0 3.947 0 5.92-.986 1.315-.656 2.631-1.313 3.617-2.298.658-.657 2.302-3.284 3.289-2.955 1.973.328 2.96 5.253 2.302 6.567z"/><path d="m350.235 173.71c0-.657-.329-1.314-.658-1.97-.329-.657-.658-1.314-.986-1.971-1.645-2.627-3.947-4.597-6.578-5.582-.328 0-.657-.328-.986-.328-1.644-.329-2.96-.657-4.604-.329-1.645.329-2.96.985-4.275 1.971-.658.328-1.316.656-2.302.985-4.604 2.298-9.208 6.896-9.537 11.821v.985c0 .657-.658 1.642-.658 2.299 0 .328-.329.657-.329.985s0 .985-.329 1.313c-.329 2.299 0 4.269.987 5.911 0 .329.329.657.658.985.328.329.328.657.657.657 3.618 3.941 10.524 4.269 16.114 2.627 1.316-.328 2.631-.985 3.947-1.642l.329-.328s.328-.329.657-.329c.658-.328 1.316-.985 1.973-1.313h.329s0-.328.329-.328c0 0 0 0 .329-.329.658-.657 1.644-1.313 1.644-2.298 2.96-3.941 4.275-8.538 3.289-13.792zm-8.222 11.493c-.328.328-.986.657-1.315 1.313-.987.986-1.973 1.642-3.289 1.971-.329 0-.657.328-1.315.328-.329 0-.329 0-.658.328-.658.329-1.315.329-2.302.657-1.644.329-3.288.657-4.933.329-.657 0-.986-.329-1.315-.329-.987-.328-1.644-.985-2.302-1.642-1.644-1.642-1.644-4.269-.658-6.896 1.316-4.597 4.275-8.209 8.879-11.493h.329c1.644 0 3.618 0 5.262.329.658 0 1.315.328 1.973.328 2.631.985 4.933 2.627 4.933 6.568.329 2.955-.987 5.91-3.289 8.209z"/><path d="m334.779 171.74c-.329 0-.329.328-.329.328-.329 0-.658 0-.987 0-2.96 1.642-6.248 4.269-5.919 8.209.657 3.612 4.275 5.583 7.892 4.926 3.947-.985 6.906-4.597 6.577-8.538 0-3.283-3.946-6.896-7.234-4.925zm2.63 6.239c-.328 1.642-1.973 2.955-3.617 3.283-1.644.329-2.96-.656-2.96-2.298 0-1.97 2.302-3.612 3.618-4.597 0 0 0 0 .329-.329l.328.329c1.645.656 2.96 1.97 2.302 3.612z"/><path d="m291.04 174.038c-.986-2.955-4.933-5.582-7.892-3.612-.329-.328-.987-.328-1.316 0-3.288 2.299-6.906 5.911-5.262 10.508 1.645 3.941 6.578 4.597 9.866 2.955 3.618-1.641 5.92-5.91 4.604-9.851zm-6.577 5.911c-1.644.657-4.275.657-4.604-1.313-.329-1.971 1.644-3.613 3.289-4.926 1.315.328 2.959.657 3.617 1.97.658 1.642-.987 3.284-2.302 4.269z"/><path d="m587.671 98.1838c-7.564-17.7322-17.429-34.1509-29.268-49.2561-9.866-12.4782-21.705-27.9118-36.175-35.7927-.658-.3284-1.315-.9852-2.302-.9852-.329 0-.329-.3283-.658-.3283-.986-.6568-2.63 0-2.959 1.3135-50.645 28.5685-99.973 58.7789-148.973 89.974-24.336 15.434-48.343 30.868-72.021 46.958-6.906 4.597-13.812 8.866-20.718 13.463-15.785 10.18-31.241 20.688-45.382 32.838-2.302.985-3.947 3.612-3.947 6.567 0 2.299 1.645 5.583 3.947 6.568h.329 1.973c.657-.329.986-.657 1.315-.985 27.624 3.612 57.222.656 85.175.656 23.02-.328 46.369-.656 69.389-.985h7.235c5.262 0 10.852 0 16.114-.328 60.839-.657 122.007-.985 182.846-1.314v.329c0 .328 0 .656.328.656.329.329.658-1.641 1.316 1.642.329 0 .329-.656.658-.656.328 0 .328 0 .657-.329l.329-.328c.329-.329.329-.657.658-.985.329-.329.329-.985.658-1.314.328-.328.328-.657.328-.985 15.786-31.852 2.302-76.511-10.852-106.3932zm-200.604 12.1502c0 .328 0 .656.329.656v.986h.658c.329.985.986 2.298.986 3.283 0 .657-.657 1.314-.986 1.642 0 .657-.329 1.314-.658 1.97 0 .657-.329.986-.658 1.642 0 0 0 .329-.329.329 0 .328-.328.328-.328.328-.329.328-.658.985-.658 1.314v.328c0 .328 0 .328-.329.657 0 .328-.329.328-.329.656-.329.657-.658.986-.987 1.642 0 .329-.328.329-.328.657s-.329.328-.329.657c-.329.328-.658.985-.987 1.313-.329.329-.658.657-.986 1.314-.329.328-.658.657-.987.985-1.644 1.642-3.289 2.955-5.262 4.269-.657.328-1.315.985-2.302 1.313-.329 0-.329.329-.657.329-.658.328-1.316.656-1.974.985-.986.328-1.644.656-2.63.985-1.645.657-3.618 1.97-5.262 2.298-2.96.657-5.591 1.642-8.551 1.642h-.328c-.329 0-.658-.328-.987-.656l-.329-.329c-1.973 0-3.617-.657-5.262-1.313-.328 0-.657-.329-.986-.657-.658 0-.987-.328-1.316-.657-.657-.328-.986-.657-1.315-.657h-.329c-.658-.328-.986-.656-1.644-.985-.658-.328-.987-.985-1.644-1.313-.329-.329-.987-.985-1.316-1.314-.329-.656-.986-.985-1.315-1.642-.329-.328-.658-.656-.987-1.313s-.987-1.642-1.315-2.299c0 0 0-.328-.329-.328 3.288-2.299 6.906-4.269 10.194-6.567v1.641c0 .329.329.986.329 1.314.329.328.329.985.658 1.313.329.329.329.986.658 1.314.329.985.986 1.642 1.644 2.299l.329.328c.329.657.986.985 1.644 1.313.329.329.658.657.987.657.329.329.657.328.986.657h.329c.329 0 .329.328.658.328.329.329.986.329 1.315.657.329 0 .329.328.658.328s.329.329.658.329c.657.328 1.315 0 1.973.328.986.328 2.302 0 3.288 0h1.316c.658 0 1.644.328 2.302.328h1.644c2.631-.656 4.604-1.641 6.249-3.283.328-.329.657-.329.986-.657s.658-.657.987-.985l.329-.328c.328-.329.328-.329.657-.657.329-.329.658-.985.658-.985l.658-.329c.329-.328 1.315-.985 1.315-1.642 0-.328 0-.328 0-.656 0-.329 0-.329 0-.657.329-.328 0-.985.329-1.314 0-.328 0-.985.329-1.313 0-.657 0-.985.329-1.642 0-.657.329-.985.329-1.642 0-.985.328-1.97.328-2.627 0-1.313 0-2.298 0-3.612 0-.657 0-.985 0-1.642s0-1.313-.328-1.97c0-.657 0-.985-.329-1.314v-.328c0-.657-.329-1.313-.329-1.97s-.329-1.314-.658-1.642c0-.657-.329-.985-.329-1.642-.329-.657-.329-.985-.657-1.642 1.315-.985 2.63-1.6417 3.946-2.6268.658.9851 1.315 1.9698 1.973 2.6268.329.657.658.985.987 1.642v.328c.328.657.657 1.642.986 2.299 0 .328.329.657.329.985 0 .329.329.657.329.985 1.973 1.971 1.973 2.627 1.973 2.956zm-14.47-4.598c.658-.328 1.316-.985 1.645-1.313.328-.328.657-.328.986-.657.658 3.612.987 7.553.987 11.493v.329 1.97c0 1.97-.329 3.94-1.316 5.911-.329.656-.657 1.313-.657 1.97-.329.328-.658.985-.658 1.313-.329.329-.658.986-.987 1.314-.657.985-1.315 1.642-2.302 2.299-2.959 2.955-7.563 3.94-11.51 2.626-.986-.328-2.302-.656-3.288-1.313-.987-.657-1.645-1.313-2.631-2.299-.987-1.313-1.645-2.627-2.302-4.268 0-.329-.329-.657-.329-.986-.329-1.313-.658-2.298-.987-3.612.329-.328.987-.656 1.316-.656 5.261-3.284 10.523-6.896 15.785-10.18 0 0 .329 0 .329-.328zm221.98 94.901c-8.221 0-16.114 0-24.335.328.657-1.314.328-2.299.328-3.612 0-1.314 0-2.627-.657-3.612 0 0 0-.329-.329-.329-.658-.656-1.644-.328-1.973.657-.329 1.314-.329 2.627-.329 3.612s0 2.299.658 3.284c-52.289.657-104.249.985-156.537 1.313-30.913 0-61.826 0-92.739.329-28.61 0-58.537-2.299-86.818 1.97-.987-.985-1.645-1.642-1.645-2.627 0-1.642 1.316-3.612 2.631-4.597 1.644-.657 2.96-1.642 4.275-2.627.987-.329 1.645-.985 2.631-1.642.658-.328 1.316-.985 1.973-1.314 2.631-1.641 5.591-3.283 8.222-5.254 1.644-.985 3.288-1.97 4.933-3.283 1.644-.985 2.959-1.971 4.275-2.956.987-.656 2.302-1.642 3.289-2.298.328-.329.657-.657.986-.657 1.316-.985 2.96-1.97 4.275-2.955 9.866-6.568 19.403-13.464 28.94-20.031.329-.329.986-.657 1.315-.985 0 0 .329-.329.658-.329.329-.328.658-.328.987-.656.328-.329.328-.329.328-.657 0 0 .329-.329.658-.329l.329-.656c.329 0 .329-.985.658-.985s.329.328.657.328c2.631-1.642 4.933-2.955 7.564-4.597s4.933-2.956 7.564-4.598c1.315-.985 2.302-1.641 3.617-2.298.658-.329.987-.657 1.645-.985.657-.657 1.315-.657 2.302-.985.657-.329 1.315-.986 1.973-1.314.986-.657 2.302-1.642 3.617-1.642 0 0 .329 0 .658-.328.329 0 .329-.329.658-.329 0 0 0 .001.329-.328l.328-.328.329-.329s0-.328 0-.656v.656c0 2.956 1.645 5.254 3.289 7.225.329.656.987 1.313 1.315 1.641.329.329.658.657.987.986.658.656 1.315.985 1.973 1.641 1.644 1.314 3.289 1.971 5.262 2.956.329 0 .658.328.658.328h.986c6.577 3.284 14.141.985 21.047-1.313.658 0 .987-.329 1.644-.657 1.645-.657 3.289-1.314 4.604-1.97.987-.329 1.974-.985 2.96-1.642.987-.657 1.973-1.314 2.631-1.642.987-.657 1.973-1.642 2.96-2.627.657-.657 1.315-1.314 1.973-2.299.329-.328.658-.656.987-.985.657-.656 1.315-1.642 1.644-2.627 2.302-3.283 3.946-7.224 4.933-11.164 1.315-4.926 1.315-9.852-.329-14.121-1.316-3.283-3.618-5.9103-6.906-7.8805 5.919-3.6122 11.51-7.2243 17.429-10.8364 5.262-3.2837 10.524-6.5675 15.786-9.8512.657-.3284.986-.6567 1.644-.9851 22.691-14.1201 45.711-27.9118 68.731-41.3752 19.732 21.3444 39.792 39.0766 53.604 65.3464 1.645 2.955 3.289 6.239 4.604 9.195.329.985.987 1.97 1.316 2.955.658 1.313.986 2.299 1.644 3.612.658 1.314 1.316 2.955 1.973 4.597 1.316 2.956 2.302 5.911 3.289 8.866.658 1.642 1.315 3.612 1.973 5.254 1.644 5.254 3.289 10.508 4.604 16.091.658 2.298 1.316 4.925 1.973 7.224.987 4.926 2.96 9.851 2.96 15.105v8.538l.329.328c0 .329 0 .657.329.985v.985.329.985c0 .985 0 1.97.329 2.627 0 .328.328.657.328.985 0 0 .329 0 .329.328h.987c.329-.328.658-.656.658-.985.328-30.538-6.578-61.406-20.39-88.6607-12.496-24.2996-32.228-52.5398-56.892-66.3315 8.55-5.254 17.429-10.1796 25.98-15.4336 8.55 10.1796 19.402 18.3889 27.953 28.2402 11.839 13.7917 21.704 28.8969 29.926 45.3156 7.563 15.434 13.483 31.852 17.429 48.599 4.933 21.345 3.618 39.405.329 60.75z"/><path d="m521.242 27.2551c-5.262-1.6419-10.524 1.9702-13.484 5.9107-1.644 1.9702.987 4.5972 2.631 2.627 3.289-3.2838 7.235-4.2689 11.181-5.9107.987-.3284.658-2.2987-.328-2.627z"/><path d="m524.53 35.7928c-2.631 0-5.59 1.9702-7.892 2.9554-1.645.9851-.658 3.9404 1.315 3.2837 2.631-.9851 5.591-1.6419 7.564-3.9405.986-.6567.329-2.2986-.987-2.2986z"/><path d="m588.329 192.099c-2.96-.985-5.92 0-8.879.328-2.631.329-2.631 4.269 0 3.941 2.959-.329 6.577 0 9.208-1.314 1.315-.657.986-2.298-.329-2.955z"/><path d="m586.027 182.904c-1.316.329-2.631.657-3.946 1.314-1.645.657-.987 3.612.657 2.627 1.316-.657 2.96-.985 3.947-1.97 1.315-.657.657-2.299-.658-1.971z"/><path d="m364.705 116.901c-.658.657-.658 1.642 0 2.299.329.328.986.657.329.328 0 0 .657.657.657.985.329.657-.657 1.642-1.315 1.971-.658.656-1.644.985-2.631.656-.987-.328-.987-1.313 0-1.642 1.315-.656.329-2.627-.987-2.298-2.302.328-3.617 2.955-2.63 5.254.986 2.955 4.604 3.94 7.234 2.627 2.631-.985 5.262-3.612 5.262-6.896 0-2.627-3.288-5.911-5.919-3.284z"/><path d="m427.188 105.08c-.329-1.971-1.973-4.269-3.946-4.269-.658 0-.987 0-1.645 0-.329 0-.657.328-.986.328 0-.328-.329-.657-.658-.657h-.329c-.329 0-.658 0-.658 0-.328 0-.328 0-.657.329 0 0 0 .328-.329.328-.658 1.314-2.302 2.627-2.302 4.269v.328 3.613c0 .328.329.985.329 1.313s.329.657.329.985v.329c.328.328.657 1.97.986 1.97s.658 0 .987.328h.657 1.316c.329 0 .658.329.986.329.329 0 .658-.329.987-.329h.987c.328 0 .328-.328.657-.657l.329-.328c.329-.328.329-.657.329-.985s0-.657 0-.985c0 0 0 0 0-.329 0-.328.987-.656.987-.985 0-.656.657-1.313.657-1.642.987-1.641 1.316-2.627.987-3.283zm-7.893 1.642c0-1.314.329-2.627.658-3.613 0 0 0 .329.329.329.986.985 2.302 1.313 2.631 2.627.329.985 0 3.612-1.316 3.612-1.644.328-2.302-1.642-2.302-2.955z"/></g></svg>