<svg fill="none" height="168" viewBox="0 0 455 168" width="455" xmlns="http://www.w3.org/2000/svg"><g fill="#fff" fill-opacity=".05"><path d="m320.822 99.7772c0-.416 0-1.248 0-1.664 0-1.6639-.416-3.3279-.831-4.9918-.416-1.664-.831-2.912-1.247-4.5759-.831-2.0799-1.662-3.7439-2.493-5.4079-.416-.8319-1.247-2.0799-1.663-2.9119-.415-.8319-1.246-1.6639-1.662-2.4959-.831-1.248-1.662-2.0799-2.493-2.9119-1.385-1.3863-2.77-2.8068-4.303-4.0277-.218-.1734-.439-.3467-.663-.52-1.112-.8597-2.277-1.6563-3.422-2.4712-.252-.179-.504-.343-.755-.4689-.831-.416-1.662-1.248-2.494-1.664-.715-.3583-1.431-.7166-2.413-1.0749-.328-.1198-.654-.2492-.957-.4228-.194-.1111-.369-.2157-.543-.3048-.656-.3359-1.413-.4602-2.112-.6934-.254-.0846-.507-.1692-.817-.3098-.147-.067-.307-.1062-.468-.1062-.113 0-.224-.0181-.33-.0536l-1.574-.525c-.505-.1687-.992-.4006-1.51-.5272-.581-.1421-1.162-.1421-1.743-.1421-1.685 0-3.325-.5937-5.001-.7732-.029-.0031-.058-.0062-.087-.0093-2.153-.2289-4.317-.4655-6.482-.4655-.022 0-.044 0-.066 0-6.194 0-12.798.8214-18.589 2.8724-.074.0261-.069.0334-.147.0419-.315.0344-.598.4635-.906.5376-21.419 5.1453-41.808 22.1226-35.213 46.4668 7.48 27.455 42.804 39.935 68.569 33.279 1.247-.416 2.494-.832 3.325-1.248.675-.338 1.625-.676 2.403-1.014.336-.146.644-.191.958-.379.538-.319 1.175-.714 1.641-1.132.031-.028.061-.056.092-.085.208-.196.441-.364.688-.507.599-.348 1.004-.695 1.698-1.043 2.909-1.664 5.402-3.328 7.896-5.408l2.493-2.496c.832-.832 1.663-1.664 2.494-2.496.415-.416.831-.832 1.247-1.248.307-.308.615-.844.754-1.101.052-.097.116-.186.194-.264l.065-.065c.149-.15.252-.503.441-.597.189-.095.302-.13.415-.309.208-.33.208-.661.208-.991 0-.548.121-1.093.436-1.541.347-.494.758-.988 1.057-1.483.119-.196.145-.459.294-.633.256-.297.459-.661.599-1.027.101-.262.175-.551.292-.797.115-.24.231-.493.231-.759 0-.416.416-1.248.416-1.664 0-1.132.645-2.21.871-3.319.024-.115.048-.231.074-.344.144-.624.389-1.225.505-1.855.155-.834.235-1.594.374-2.412.14-.817.254-1.641.254-2.47 0-2.912 0-3.744 0-4.9918zm-29.506 34.1108c-19.116 7.904-46.128 2.912-59.427-14.143-23.238-29.4934 6.564-46.5424 30.236-55.2894.067-.025.06-.0322.132-.0393.311-.0309.621-.4393.932-.47 15.618-1.5395 31.577 1.4481 42.257 13.7835 17.038 19.5514 8.727 46.5902-14.13 56.1582z"/><path d="m276.771 69.826c-.05-.0126-.1-.023-.149-.0311-2.524-.4194.073 3.0576 2.381 4.161 10.335 4.9411 19.794 10.5572 23.534 22.9093 5.818 20.3838-15.377 29.9508-31.999 29.1188-14.545-.416-32.415-8.735-34.493-25.375-2.078-17.4714 23.688-23.7112 35.324-26.6231 2.493-.416 1.246-4.1599-.831-3.7439-15.792 3.7439-37.817 10.3997-38.649 30.367-.415 18.304 21.195 29.951 36.571 31.199 16.623 1.664 38.232-6.24 40.726-25.375 2.493-19.5515-15.376-32.4471-32.415-36.607z"/><path d="m273.447 85.6336c-1.247-.416-2.494 1.2479-1.663 2.4959.99 1.9806-2.563 3.3042-1.849 1.2085.044-.1277.106-.2541.187-.3765.831-1.664-1.662-2.9119-2.493-1.664-2.909 4.1599.415 9.1518 5.402 7.9038 4.156-1.248 5.818-8.3198.416-9.5677z"/><path d="m258.07 97.6972c-2.078 0-2.909 2.9118-1.246 3.7438.317.136.571.283.767.436 2.834 2.215-5.713 5.271-7.219 2.006-.293-.635-.28-1.445.218-2.442.831-1.248-.831-2.9118-2.078-1.6639-2.078 2.0799-2.078 5.4079-.415 7.4879 2.077 2.496 5.402 3.328 8.727 2.496 2.909-.832 5.818-2.912 6.233-6.24 0-2.496-2.078-5.8238-4.987-5.8238z"/><path d="m284.251 98.5292c-1.246-.416-2.909 0-2.493 1.6638.416 2.496 2.078 4.992 0 7.072-1.662 1.664-4.987.832-4.156-1.664.416-1.664-2.078-2.912-2.909-1.248-2.078 4.992 2.494 9.984 7.896 8.32 2.494-.832 4.571-3.328 4.987-6.24s-.416-6.6559-3.325-7.9038z"/><path d="m315.835-17.5316c-3.325-6.2398-12.052-8.3197-18.285-8.3197-4.112 0-2.147 7.7179-4.236 11.2599-3.309 5.61271-8.624 9.21229-14.881 13.28338-1.246.831974-1.662 2.91192-.415 4.15988 4.156 3.3279 8.311 7.0718 12.467 10.39974 2.078 1.6639 4.156 4.1598 7.065 4.1598 6.233 0 9.974-10.39966 12.051-14.55954 2.909-5.40785 9.559-13.72756 6.234-20.38346zm-7.065 8.7358c-1.246 3.74389-4.571 7.903767-6.649 11.64766-.396.59514-.793 1.3795-1.234 2.1726-.932 1.67418-1.322 4.26566-3.176 4.74794-.033.00837-.065.01578-.099.02222-1.149.22158-2.39-.13647-3.442-.64899-.095-.0464-.189-.09726-.28-.15259-.665-.40157-1.238-.88254-1.908-1.27486-4.351-2.54716-3.353-9.09356.364-12.50047 2.993-2.74351 5.38-5.94741 6.537-9.61161.938-2.9687 3.363-5.363 6.147-3.9696 4.987 2.4959 4.987 5.8238 3.74 9.5677z"/><path d="m374.846 19.4915c-1.151-8.642-9.277-16.48595-18.03-17.8685-7.809-1.233582-16.498 2.31687-21.723 8.25083-3.922 4.45357-6.3 10.78947-6.791 16.68947-1.247 14.1436 12.052 19.5514 24.519 17.8875 12.467-1.664 23.687-11.6477 22.025-24.9593zm-19.947 17.8874c-8.727 2.08-21.195.832-20.363-10.8156.359-7.5621 4.767-15.4359 11.876-17.95482 2.253-.79853 4.701-.74017 7.082-.51929 6.69.62076 13.001 2.44671 15.118 10.57031 1.663 9.1517-5.818 16.6395-13.713 18.7194z"/><path d="m353.314 14.9956c-1.289-.2078-2.651-1.4962-3.818-.912-4.987 2.0799-9.558 7.4878-9.142 12.8956.415 5.4079 4.571 8.7358 9.973 7.9038 5.403-.832 10.39-5.8238 10.39-11.6477-.354-4.2512-3.421-7.5974-7.403-8.2397zm2 9.9037c-.49 1.4723-1.703 2.9446-3.213 3.99-2.052 1.4209-5.014 2.454-7.02.9682-1.579-1.1699-2.055-3.6518-.987-5.7902 1.109-2.5916 3.207-3.8652 5.119-5.5804.458-.4106.915-.2434 1.53-.2434 3.324 0 5.402 3.7439 4.571 6.6558z"/><path d="m411.417 87.7135c-.832-.832-2.078-.832-3.325-.416-8.277 2.8817-12.814.4609-13.882-7.8028-.364-2.8148-.37-5.8879 1.229-8.2328 1.661-2.4356 4.423-2.8226 8.288-1.1612 1.829.7862 3.319 3.0388 5.268 2.6354 3.058-.6328 2.885-5.5188 2.093-8.5394-.37-1.4101-.943-2.766-1.334-3.9384-1.246-3.3279-2.909-6.2398-5.818-8.3198-1.5-1.0014-3.652.3618-5.45.5155-22.505 1.9243-32.982 30.1703-18.237 47.3232 6.233 7.4878 18.7 13.3118 28.259 7.9038 7.48-4.16 9.142-14.5596 2.909-19.9675zm-.416 5.4079c0 .3259-.255.6518-.565.9777-.097.1013-.266.445-.266.5848 0 .0243-.006.1127-.017.1343-.225.4387-.562.8789-.89 1.3816-.604.9264-1.174 1.897-1.85 2.7726-.306.3968-.619.8273-.945 1.2806-1.361 1.892-3.254 3.506-5.585 3.502-4.126-.008-8.625-2.345-11.562-4.5458-.225-.1691-.53-.245-.732-.4428-.239-.2358-.573-.3767-.821-.6031-.062-.0555-.123-.1084-.184-.1572-.383-.3065-.881-.504-1.228-.8514-.235-.2351-.47-.4703-.705-.7054-.327-.3278-.59-.591-.814-.8405-.667-.743-.974-1.7813-1.679-2.4874-.706-.7068-1.086-1.6902-1.487-2.6051-5.977-13.6236 4.959-29.4183 20.624-33.3919.413-.1048.81.638.81.638 0 .6777-.276 1.3554-.378 2.0331-.042.2817.123.5433.378.6708s.403.4061.565.6403c.179.2583.518.5166 1.017.7749.053.0273.101.0625.145.1026.134.1224.303.2447.494.3671.363.2314.287.403-.143.403h-1.247c-2.909 0-5.818 1.248-8.311 3.3279-.416.416-.831.832-1.247 1.248-.7.7005-1.202 1.6495-1.772 2.4591-4.171 5.9237-4.769 15.0653 2.603 21.6682 1.663 1.248 2.909 2.08 4.572 2.4959 1.984.7945 3.589.8303 5.901 1.5564.199.0624.332.2479.332.456 0 .2671.227.4761.453.3345.521-.3256 1.011-1.1106 1.363-1.6018.162-.2271.402-.3821.598-.5806.112-.1133.214-.2472.306-.3902.552-.8632 1.2-2.6379 1.938-1.9276.234.2253.329.726.329 1.3214z"/><path d="m346.172 72.3219h-.416c-5.402-.416-10.389 3.7439-10.389 9.1518 0 5.4078 4.571 10.3997 9.973 10.3997 5.403 0 9.974-5.4079 9.559-10.8157-.416-4.9919-4.572-9.1518-8.727-8.7358zm-1.247 12.8957c-2.494.416-4.571-1.664-4.987-3.7439-.144-.863.011-1.6762.377-2.3882 1.414-2.7458 5.846-2.3441 7.441.3005.461.763.77 1.6789.701 2.5673-.121 1.5781-1.569 2.9368-3.532 3.2643z"/><path d="m361.548 149.28c.415 0 .415.416 0 0 .415.416.415.416 0 0zm34.077-13.312c0-2.882-.985-5.754-1.978-8.46-2.13-5.806-8.595-8.595-15.061-8.595-.415 0-1.246-.416-1.662-.416-.831 0-2.078 0-2.909 0-1.536 0-2.716.355-4.198 1.064-.246.119-.516.184-.789.184s-.178 0-.301.116c-.132.126-.159.27-.322.352-.163.081-.253.334-.416.416-.163.081-.36.364-.526.438-.222.099-.444.286-.665.498-.099.094-.418.259-.555.259-.03 0-.137.009-.162.026-1.018.687-2.034 1.648-2.82 2.657-.319.41-.439.884-.88 1.158-.24.15-.474.455-.641.683-.18.248-.394.462-.608.676-.626.627-.987 1.477-1.548 2.163-.035.042-.072.083-.114.125-.626.627-.705 1.629-1.085 2.43-.384.807-.655 1.665-.916 2.676-.052.2-.071.381-.082.588-.035.67-.263 1.407-.629 1.97-.052.08-.117.16-.197.24-.416.416 0 .832 0 1.248v1.248 1.248.832c0 .832 0 1.248.416 1.664.415.416.415.832.415 1.248 0 .118.033.202.081.272.233.34.102.676-.267.861l-.117.058c-.074.037-.07.05-.152.06-.293.034-.136.43.143.525.241.08.479.186.614.249.075.035.158.052.238.075.065.018.143.054.201.122.106.124.075.274.237.274.078 0 .3.031.355.086.131.132.397.397.673.674.046.046.072.013.072.078 0 .159.109.519.222.632.027.027.058.058.092.092.065.065.153.102.245.102h1.103.416.207c.115 0 .208.093.208.208s.094.208.208.208h.208c.415 0 .83.415.831.416l.122.122c.188.188.443.294.709.294h.831.832.415c.626 0 1.185.416 1.801.529.668.123 1.393.303 1.939.303 1.221 0 2.314.832 3.534.832h1.038c3.609 0 7.218-1.937 10.08-3.942.207-.144.427-.267.632-.414.468-.332.786-.791 1.067-1.15.165-.212.254-.501.44-.694.236-.244.417-.568.695-.761 1.178-.816 2.606-1.919 3.708-3.023.416-.416.832-.832.832-1.248v-.416s0-.416 0-.832c0-.625.599-1.063 1.222-1.003 1.927.185 2.518-.922 2.518-2.325 0 .416 0 .416 0 0zm-33.246 1.664c.102-1.329.481-2.709 1.073-4.065 3.68-8.413 16.087-11.85 23.059-5.874.283.243.551.504.802.787 6.234 6.656-2.078 14.976-8.311 17.056-6.234 1.664-17.454 1.248-16.623-7.904zm-.831 11.648c-.154.153-.045.416.172.416h.243c-.229 0-.415-.187-.415-.416z"/><path d="m373.039 128.852c-.18.026-.32.025-.494.082-.766.25-1.495.766-2.251 1.047-.28.104-.561.232-.841.369-.284.138-.555.302-.794.507-1.477 1.268-2.571 3.22-2.955 5.527-.413 3.713 3.671 8.653 7.792 6.706.067-.032.215-.054.284-.083.267-.112.49-.349.779-.351 2.913-.02 5.97-2.983 6.454-5.903.086-.518.132-1.045.158-1.569.205-4.077-3.918-6.949-8.132-6.332zm3.469 7.116c-.145.584-.444 1.065-.843 1.479-1.428 1.487-4.559.999-4.559-1.063 0-1.456 1.909-2.275 2.943-2.735.252-.113.56-.154.758-.346.253-.246.617-.15.89.072.904.732 1.174 1.504.811 2.593z"/><path d="m202.799 123.072c-2.909-.416-4.571 1.248-6.233 2.912-3.74 3.744-7.896 5.824-13.299 5.408-.253 0-.506 0-.76.094-.341.128-.644.48-.902.738-.266.267-.421.628-.41 1.004.01.331.036.646.107.915.108.408.719.571.719.993 0 2.266-.343 4.532.527 6.798.178.463.318.935.473 1.406.198.599.422 1.237.812 1.732.47.596.969 1.095 1.565 1.565.492.388.983.979 1.61.979.415 0 .415.832.831.832.415 0 .415.832.831.832h1.247.415c.416 0 .416-.416.831-.416 2.359 0 4.718-.745 7.428-1.882.309-.129.659-.181.944-.357.158-.098.316-.233.474-.382.194-.183.446-.291.712-.291.412 0 .622-.553.964-.783 1.056-.71 2.068-1.419 2.777-2.129.694-.695 1.651-1.208 2.315-1.932.834-.91 1.546-1.88 1.84-3.06 1.663-4.16-.415-13.728-5.818-14.976zm1.579 7.383c1.287 3.41.259 7.719-2.753 9.772-1.188.81-2.54 1.435-3.813 1.981-2.909 1.248-7.064 3.328-9.558 1.248-.221-.177-.419-.373-.596-.586-2.59-3.105 1.967-6.756 5.583-8.566 1.662-.832 3.325-1.664 4.571-2.912.279-.278.697-.837 1.176-1.441 1.626-2.046 4.466-1.941 5.39.504z"/><path d="m158.264 124.04c-.132-1.761-.389-3.547-1.178-5.127-.415-.832-.831-1.664-1.246-2.496-1.911-3.061-4.525-5.417-7.518-6.747-.519-.23-1.084-.386-1.6-.622-.284-.13-.595-.15-.9-.212-1.869-.381-3.436-.708-5.359-.323-1.47.294-2.732.797-3.933 1.507-1.014.601-1.854 1.218-2.936 1.687-.853.369-1.865.748-2.673 1.209-5.382 3.077-10.434 8.517-10.821 14.316v1.248c0 .832-.831 2.08-.831 2.912 0 .416-.415.832-.415 1.248 0 1.141-.537 2.274-.567 3.414-.042 1.596.197 3.05.719 4.364.37.933.8 1.912 1.51 2.622.551.552 1.12 1.173 1.705 1.688 4.748 4.177 12.852 4.426 19.489 2.472 1.487-.372 2.974-1.077 4.461-1.817.349-.174.666-.404.942-.679.441-.442 1.127-.556 1.634-.92.54-.388 1.08-.839 1.62-1.124.046-.024.097-.036.149-.036h.107c.127 0 .215.006.247-.116.048-.178.572-.474.702-.604l.112-.112c1.691-1.692 2.931-3.905 4.068-6.01 1.914-3.545 2.833-7.459 2.512-11.742zm-10.736 11.928c-1.11 1.112-2.165 2.325-3.492 3.166-.23.146-.465.279-.708.401-1.026.511-2.134 1.009-3.28 1.009-.647 0-1.123.584-1.75.743-.566.143-1.193.239-1.99.505-1.863.373-3.725.746-5.588.519-.432-.052-1.022-.097-1.434-.237-.673-.229-1.236-.366-1.847-.728-.747-.443-1.342-1.039-1.936-1.634-2.078-2.08-2.078-5.408-.831-8.736 1.63-5.71 5.257-10.221 10.882-14.316.219-.159.483-.243.754-.243 1.791 0 3.89 0 5.767.266.589.084 1.182.136 1.763.269 1.056.241 2.147.462 3.118.944 2.65 1.315 4.728 3.454 4.728 7.672.415 3.744-1.247 7.488-4.156 10.4z"/><path d="m138.511 118.84c-.082.046-.26.077-.342.123-.249.138-.43.366-.715.366-.158 0-.316 0-.474 0-.168 0-.334.042-.48.125-3.68 2.087-7.664 5.382-7.257 10.274.831 4.576 5.402 7.072 9.974 6.24 4.987-1.248 8.727-5.824 8.311-10.816 0-4.118-4.887-8.644-9.017-6.312zm3.304 6.138c.364 1.195-.138 2.523-.86 3.543-.882 1.245-2.349 2.161-3.816 2.455-2.078.416-3.74-.832-3.74-2.912 0-2.421 2.738-4.451 4.419-5.71.096-.072.081-.043.166-.127.155-.156.528-.276.683-.121l.063.064c.047.046.103.083.164.108 1.38.573 2.56 1.514 2.921 2.7z"/><path d="m83.1143 121.825c-1.0869-3.265-5.0167-6.212-8.4847-5.26-.9222.253-2.2324.033-3.0203.575-.0962.066-.1785.142-.2739.209-4.1166 2.916-8.5604 7.454-6.5063 13.211 2.0779 4.992 8.3115 5.824 12.4672 3.744 4.5713-2.08 7.4803-7.488 5.818-12.479zm-5.4024 2.079c1.6224 4.061-7.4193 8.261-8.6536 4.067-.0301-.103-.0547-.21-.0735-.323-.1402-.842.0509-1.637.4454-2.384 1.5843-3.002 6.765-4.396 8.2817-1.36z"/><path d="m457.961 25.7313c-9.559-22.4634-22.026-43.2628-36.986-62.3983-12.467-15.8075-27.428-35.3589-45.713-45.3427-.831-.4159-1.663-1.2479-2.909-1.2479-.627 0-1.106-.6665-1.729-.7305-.321-.0329-.656.0031-.979.0999-1.692.5061-2.734 2.3706-4.271 3.2411-63.154 35.7885-124.703 73.59491-185.847 112.6182-30.752 19.5514-61.089 39.1029-91.0101 59.4863-8.7271 5.8238-17.4541 11.2316-26.1811 17.0556-17.7746 11.491-35.2192 23.312-51.4518 36.641-3.94635 3.24-9.28324 5.817-10.564157 10.76-.208081.803-.31990404 1.649-.31990404 2.517 0 2.786 1.90108104 6.713 4.61220104 8.141.2426.128.51605.179.79025.179h1.81643c.4452 0 1.00107-.152 1.36803-.404.73416-.504 1.48785-.775 2.37175-.665 34.5066 4.298 71.381.653 106.2324.653 29.09-.416 58.596-.832 87.686-1.248h9.143c6.649 0 13.714 0 20.363-.416 76.742-.83 153.898-1.246 230.642-1.661.229-.002.416.184.416.413 0 .679.79.084 1.297.536.148.133.313.466.502 1.162.19.698.387.382 1.11.382.416 0 .415 0 .831-.416l.416-.416c.415-.416.415-.832.831-1.248.415-.416.415-1.248.831-1.664.632-.632.625-1.664 1.007-2.472 19.013-40.265 2.15-96.0823-14.305-133.5557zm-253.499 15.3915c0 .152 0 .3041.02.4358.052.3406.395.6756.395 1.0202v.141c0 .2667.216.483.483.483.208 0 .392.133.463.3284.437 1.2008 1.132 2.6901 1.132 3.8314 0 .2574-.08.5147-.202.7598-.483.9691-1.012 1.9167-1.443 2.9101-.252.5815-.378 1.2624-.641 1.8387-.147.3204-.354.6283-.566 1.0349-.038.0734-.054.1566-.077.2362-.005.0203-.013.0418-.022.0636-.104.2359-.451.5818-.703.6341-.121.0251-.137.0583-.216.1534-.368.4422-.701 1.1484-.701 1.521v.416c0 .1728 0 .2738-.03.3627-.125.3717-.421.6756-.677.9729-.15.174-.176.4366-.288.6365-.2.3541-.4.6374-.599.9422-.347.5286-.9 1.0295-.9 1.6615 0 .6154-.653 1.0854-.994 1.5973-.223.3336-.445.6758-.668.8987-.077.0765-.153.1531-.229.2322-.812.8402-1.439 1.8531-2.265 2.6797-2.077 2.0799-4.155 3.7439-6.649 5.4078-.747.3739-1.494 1.0839-2.543 1.5258-.238.1006-.533.1121-.723.289-.273.2556-.648.3524-.983.5199-.469.2349-.938.4697-1.407.7045-.384.1923-.783.3542-1.186.5027-.935.3447-1.683.6893-2.716 1.034-2.078.832-4.571 2.4959-6.649 2.9119-3.74.832-7.065 2.08-10.805 2.08h-.415c-.416 0-.832-.416-1.247-.832-.266-.2663-.628-.4117-1.004-.4314-2.06-.1079-3.845-.7662-5.609-1.4679-.299-.1189-.564-.1415-.848-.2931-.591-.316-1.277-.6373-1.849-.9863-.096-.0588-.185-.1247-.27-.195-.276-.2286-.56-.4477-.868-.6296-.532-.3136-.86-.5726-1.188-.5726-.273 0-.545-.0604-.782-.197-.606-.3503-1.012-.7006-1.712-1.0509-.466-.2334-.801-.5975-1.152-.9457-.554-.5485-1.206-.9994-1.757-1.5506-.55-.5508-1-1.2032-1.548-1.7568-.038-.0384-.076-.0766-.114-.1148-.626-.6268-1.207-1.317-1.701-2.0524-.126-.1869-.251-.4003-.377-.6516-.409-.8186-1.22-2.0399-1.642-2.8714-.013-.0268-.019-.0162-.02-.0462-.007-.1891-.067-.653.089-.7602 3.448-2.3713 7.156-4.4833 10.658-6.8005.731-.4832 1.72.0348 1.72.9106 0 1.102.501 2.3158 1.146 3.209.031.0425.064.0823.101.1189.872.8733.971 2.3279 1.732 3.2995.36.4584.768.8674 1.177 1.2764.275.2755.487.6085.741.9038.362.421.852.7138 1.367.9811.254.1316.485.3015.693.4972.241.2261.481.4177.722.4942.135.0429.271.0952.383.1815.251.1937.503.2756.755.4301.13.0803.588.256.741.256.008 0 .016.0001.023.0004.6.0228 1.07.6415 1.64.8316.569.1901 1.039.8087 1.639.8315.008.0003.015.0004.023.0004.632 0 1.13.6003 1.761.6206.334.0108.668-.0125 1.001.0378.389.0587.748.2501 1.137.3072 1.152.169 2.518-.1336 3.581-.1336h1.662c.832 0 2.078.416 2.909.416 1.38 0 2.766-.1374 4.072-.5848 2.363-.8096 4.262-1.9331 5.902-3.5751.416-.416.831-.416 1.247-.832.415-.4159.831-.8319 1.247-1.2479l.415-.416c.416-.416.416-.416.831-.832.188-.1879.376-.4607.525-.7034.213-.3455.503-.6427.865-.8243.181-.0902.345-.2089.498-.3405.523-.4513 1.437-1.1635 1.437-1.8757 0-.416 0-.4159 0-.8319 0-.5328.207-1.0817.208-1.6144 0-.0176 0-.0351 0-.0527 0-.5625.167-1.106.259-1.6608.093-.5549.33-1.1506.393-1.7095.018-.1602.048-.3157.095-.4803.141-.4931.266-.9982.412-1.4898.123-.4131.295-.7764.295-1.3123 0-1.248.416-2.4959.416-3.3279 0-1.664 0-2.9119 0-4.5759 0-.832 0-1.248 0-2.0799 0-.6326 0-1.2652-.183-1.8977-.117-.4062-.219-.8191-.244-1.241-.016-.2748-.056-.4925-.157-.6889-.121-.2371-.247-.4819-.247-.7483 0-.832-.416-1.664-.416-2.4959 0-.3127-.059-.6253-.154-.9159-.271-.8262-.727-1.6483-.974-2.4822-.026-.0873-.049-.1769-.069-.2708-.065-.3185-.153-.6873-.273-.9896-.372-.9412-.021-2.0257.829-2.5762.252-.1632.504-.3224.755-.4804 1.543-.9679 3.576-.5218 4.744.8751.056.0666.111.1317.167.1953.242.2758.455.5756.644.8899.295.4908.59.8619.884 1.41.065.1205.096.1001.096.2369s.033.4272.091.5511c.209.4476.419.9856.628 1.5074.325.81.944 1.5924.944 2.4654 0 .8499.764 1.5782 1.331 2.2111 1.578 1.7599 1.578 2.4236 1.578 2.7807zm-18.286-5.8238c.831-.416 1.663-1.248 2.078-1.664.45-.4502 1.4.0244 1.5.6529.662 4.1609.994 8.6178.994 13.0747v.416 2.496c0 2.4959-.416 4.9918-1.663 7.4877-.26.522-.521 1.0441-.679 1.5661-.176.5795-.453 1.2202-.723 1.7619-.271.5416-.494 1.0808-.83 1.5844-.139.2081-.278.4202-.417.6052-.161.2136-.333.4196-.487.6376-.341.4804-.689.8977-1.071 1.2802-.974.9757-2.071 1.8348-3.186 2.6459-3.679 2.6761-8.638 3.4277-12.97 1.9824-1.246-.416-2.909-.832-4.155-1.664-.814-.5431-1.451-1.0863-2.142-1.7452-.801-.7634-1.537-1.598-2.12-2.5381-.634-1.0238-1.159-2.089-1.665-3.2872-.208-.4929-.353-1.0274-.582-1.5105-.148-.3105-.182-.6557-.269-.9883-.266-1.0166-.532-1.8976-.798-2.8617-.208-.75.087-1.6379.813-1.919.387-.1502.716-.2422 1.068-.4636 6.406-4.0291 12.813-8.4235 19.219-12.4391.124-.0775.159-.0984.3-.1346.263-.0673.446-.4861.677-.6274zm281.98 109.975c-.774 5.904-5.864 10.234-11.817 10.261-5.248.024-10.459.085-15.746.24-2.095.061-4.242-2.32-4.242-4.415 0-1.561 0-3.122-.686-4.339-.089-.158-.114-.226-.176-.397-.084-.229-.475-.366-.683-.493-.806-.49-1.827-.037-2.195 1.069-.416 1.664-.416 3.328-.416 4.576 0 1.856-1.619 4.19-3.475 4.213-64.623.797-128.866 1.204-193.506 1.61-39.064 0-78.128.001-117.192.416-34.8098 0-71.161-2.699-105.715 1.927-2.51557.337-6.07348-.22-6.07348-2.758 0-1.219.5702-2.58 1.37664-3.749 1.07718-1.562 2.92594-2.402 4.53324-3.41 1.9679-1.234 3.8889-2.49 5.7869-3.829.1148-.081.2328-.163.3548-.244.8312-.416 1.6623-1.248 2.4935-1.664 3.3245-2.08 7.0647-4.16 10.3893-6.656 2.0778-1.248 4.1557-2.496 6.2335-4.16 2.0779-1.248 3.7402-2.496 5.4025-3.744 1.1521-.769 2.6591-1.893 3.865-2.715.1929-.132.4067-.317.5761-.477.557-.529 1.2909-.804 1.9203-1.244 1.4572-1.017 3.0884-2.034 4.4435-3.051 11.8769-7.926 23.3767-16.23 34.8586-24.1914 1.1381-.7892 2.3952-1.4526 3.374-2.4323.4298-.4302 1.0942-.6329 1.6293-.9218.1495-.0807.2991-.1765.4486-.3262.2334-.2337.3357-.3361.3806-.4547.0862-.2282.1282-.4813.3346-.6112.0286-.0179.0586-.0356.0898-.0525.2505-.1359.5222-.2906.6495-.5455.1273-.255.4019-.4696.5125-.7322.1558-.3697.2475-.9318.5264-.9318.6277 0 1.1132.2387 1.6471-.0914 2.9922-1.8503 5.6922-3.4083 8.7422-5.3165 3.325-2.0799 6.234-3.7438 9.558-5.8238 1.662-1.2479 2.909-2.0799 4.571-2.9119.06-.03.118-.06.174-.09 1.302-.6982 2.352-1.7216 3.778-2.1063.628-.1694 1.334-.4388 1.861-.8197.556-.4014 1.112-.8657 1.668-1.1439 1.246-.8319 2.909-2.0799 4.571-2.0799.001 0 .35-.0003.728-.3204.068-.0583.156-.0892.242-.1138.082-.0231.144-.0659.199-.1151.162-.1442.756-.5451.909-.6987l.416-.416.415-.416s0-.416 0-.8319v.8319c0 2.7367 1.11 5.0287 2.519 7.0388 1.02 1.4547 2.044 2.9362 3.299 4.1929.416.416.831.832 1.247 1.248.831.832 1.662 1.2479 2.493 2.0799 1.992 1.5948 3.983 2.4253 6.34 3.5902.204.1005.542.1717.742.2784.342.1823.616.2913 1.003.2913h.19c.297 0 .591.0715.861.1983 7.533 3.5454 16.053 1.4313 24.034-1.1527 1.429-.4626 2.889-.8693 4.232-1.5415.868-.3476 1.736-.6951 2.573-1.0426 2.187-.9073 4.394-1.8239 6.372-3.1258.204-.1346.408-.271.613-.4075 1.247-.832 2.493-1.6639 3.324-2.0799 1.247-.832 2.494-2.08 3.741-3.3279.476-.4765.952-.9529 1.427-1.5074.765-.8902 1.484-1.8226 2.313-2.6525 1.854-1.8558 2.898-4.3888 4.158-6.6898 1.843-3.3666 3.227-7.0742 4.153-10.7817 1.663-6.2398 1.663-12.4797-.415-17.8875-2.282-5.7089-2.47-13.8556 2.733-17.1295 3.488-2.194 6.978-4.3879 10.565-6.5818 6.649-4.15992 13.298-8.3198 19.947-12.479683.832-.415987 1.247-.831967 2.078-1.247957 17.281-10.77996 34.713-21.40896 52.205-31.88676 20.169-12.0814 46.312-8.4831 62.365 8.6939 15.076 16.13208 29.097 32.72671 40.023 53.56 2.078 3.7439 4.156 7.9038 5.818 11.6477.057.1713.122.3426.193.5139.9 2.1861 1.963 4.3084 2.921 6.47.188.4244.39.8634.626 1.3358.832 1.664 1.663 3.7439 2.494 5.8239 1.662 3.7439 2.909 7.4878 4.156 11.2316.831 2.08 1.662 4.5759 2.493 6.6558 2.078 6.6559 4.156 13.3117 5.818 20.3835.831 2.9119 1.662 6.2398 2.493 9.1516 1.247 6.24 3.741 12.48 3.741 19.136v10.521c0 .188.074.369.207.502s.203.314.214.502c.017.318.092.636.41.954v1.248.416 1.248c0 1.137 0 2.274.314 3.096.059.156.094.322.144.481.072.226.218.452.305.678.065.17.113.291.276.373.162.081.355.364.537.364h.552c.234 0 .46-.091.621-.26.315-.33.575-.659.575-.988.416-38.687-8.311-77.7898-25.765-112.3168-12.147-23.67757-29.702-50.3085-51.343-69.2918-8.542-7.4931-8.545-21.9067 1.247-27.6712 6.372-3.751 14.541-2.3957 19.768 2.8349 8.873 8.881 18.538 17.0243 26.588 26.3221 14.96 17.4715 27.427 36.6069 37.817 57.4063 9.558 19.5514 17.038 40.3509 22.025 61.5663 5.432 23.5612 4.868 43.9642 1.884 66.7122z"/><path d="m460.073 147.637c1.103-2.095-2.413-3.464-4.781-3.473-2.573-.011-5.147.67-7.721.956-3.324.416-3.324 5.408 0 4.992 3.74-.416 8.312 0 11.636-1.664.412-.206.697-.489.866-.811z"/><path d="m455.883 133.056c-1.663.416-3.325.832-4.987 1.664-2.078.832-1.247 4.576.831 3.328.436-.218.9-.408 1.371-.591 2.541-.991 5.431-5.063 2.785-4.401z"/><path d="m176.203 49.4426c-.831.832-.831 2.0799 0 2.9119.178.178 1.138 1.273 1.218 1.5117.011.0337.019.066.024.0967.006.0365.014.0727.028.1069.205.4985-.15 1.132-.642 1.6471-.604.6317-1.325 1.1913-2.129 1.5345-.678.2897-1.459.3554-2.239.095-1.888-.63 1.65-3.2287.2-4.5918-.37-.3484-.885-.5408-1.447-.4001-2.909.416-4.571 3.7439-3.325 6.6558 1.247 3.7439 5.818 4.9919 9.143 3.3279 3.324-1.2479 6.649-4.5758 6.649-8.7357 0-3.3279-4.156-7.4878-7.48-4.1599z"/><path d="m255.182 36.0109c.293-1.0068-.063-2.0892-.458-3.0605-.824-2.025-2.553-3.8912-4.55-3.8912-.831 0-1.246 0-2.077 0-.013 0-.026.0004-.039.0011-.71.0425-1.328-.4171-2.039-.4171h-.416c-.415 0-.831 0-.831 0-.341 0-.402 0-.643.2299-.122.117-.161.1725-.215.3331-.077.2296-.455.4069-.578.6151-.92 1.5505-2.72 3.1259-2.72 5.0617v.416 4.5759c0 .416.416 1.2479.416 1.6639s.415.832.415 1.248c0 .2663.105.5263.219.7673.342.7291.685 2.1446 1.028 2.1446.175 0 .35 0 .526.0312.524.0931 1.02.3848 1.552.3848h1.662c.416 0 .831.416 1.247.416s.831-.416 1.247-.416h1.246c.416 0 .416-.416.832-.832l.415-.416c.416-.416.416-.832.416-1.2479 0-.416 0-.832 0-1.248s0 0 0-.416 1.246-.832 1.246-1.248c0-1.4821 1.316-2.7148 1.881-4.085.09-.2171.162-.4203.218-.6109zm-9.994.5361c0-1.414.3-2.828.645-3.9867.032-.109.415-.1931.528-.178.026.0036.084.0155.103.0342 1.243 1.2252 2.883 1.6477 3.295 3.2985.042.1253.075.2716.1.4334.494 3.2585-4.359 4.1643-4.65.8813-.014-.1661-.021-.328-.021-.4827z"/></g></svg>