<svg fill="none" height="120" viewBox="0 0 180 120" width="180" xmlns="http://www.w3.org/2000/svg"><g fill="#fff" fill-opacity=".05"><path d="m120.973 73.3074c-.031-.139-.092-.417-.123-.5559-.122-.556-.384-1.0813-.645-1.6065-.262-.5253-.493-.9117-.754-1.437-.431-.6336-.831-1.1283-1.231-1.623-.201-.2473-.57-.603-.77-.8503-.2-.2474-.539-.4641-.74-.7114-.369-.3557-.708-.5724-1.047-.7892-.565-.3611-1.132-.7336-1.734-1.0286-.086-.0419-.173-.0835-.26-.1248-.435-.2053-.883-.3856-1.326-.5735-.097-.0413-.193-.0775-.286-.1011-.309-.0777-.648-.2944-.956-.3722-.266-.0669-.531-.1339-.886-.1813-.118-.0158-.236-.0351-.35-.0707-.073-.0228-.14-.0449-.204-.0618-.244-.064-.506-.0497-.757-.0761-.091-.0096-.182-.0191-.296-.0433-.054-.0115-.11-.0129-.164-.001-.038.0083-.076.0105-.114.0064l-.565-.0594c-.181-.0191-.361-.0608-.543-.0649-.204-.0047-.399.0381-.593.0809-.563.1242-1.155.0467-1.728.1102-.01.0011-.019.0022-.029.0033-.736.0821-1.477.1626-2.2.3221-.007.0016-.015.0032-.022.0048-2.069.4564-4.2154 1.2174-5.9992 2.3293-.0226.0141-.0204.0162-.0457.0248-.1028.0347-.1658.1989-.2633.2464-6.7769 3.2971-12.3379 10.4714-8.3408 18.1186 4.522 8.6215 17.243 10.1882 25.36 6.0662.386-.2308.772-.4617 1.019-.6619.201-.1627.493-.3456.729-.5159.101-.0735.2-.1113.292-.197.156-.1465.34-.3253.464-.4992.009-.0115.017-.0232.025-.0351.055-.0808.12-.1541.192-.2202.175-.1603.284-.3062.491-.4735.849-.7703 1.56-1.5099 2.239-2.3885.217-.3392.433-.6784.65-1.0176.216-.3392.432-.6784.649-1.0176.108-.1696.216-.3392.324-.5088.08-.1255.144-.3273.171-.4236.01-.0361.025-.0707.045-.1023l.018-.0268c.038-.0608.047-.1864.103-.2319s.091-.0656.116-.1336c.045-.1258.021-.2362-.004-.3467-.04-.1828-.04-.3739.032-.5466.08-.1907.181-.3861.244-.5734.026-.0743.015-.164.052-.2332.063-.1181.104-.2548.124-.3874.015-.095.018-.1969.039-.2877.021-.0887.041-.1817.021-.2707-.03-.139.047-.4475.017-.5865-.084-.3782.052-.7857.046-1.1729-.001-.0404-.001-.0806-.001-.1204.002-.2192.04-.4381.033-.6572-.01-.2899-.039-.5495-.053-.8333-.014-.2832-.036-.5669-.097-.8438-.215-.9728-.276-1.2508-.368-1.6677zm-7.345 13.5702c-5.804 4.049-15.1962 4.3715-20.8957-.3468-9.937-8.1412-1.2362-16.033 6.0278-20.6994.0207-.0133.0176-.0151.0411-.0228.1017-.0333.1752-.1926.277-.2257 5.1048-1.6651 10.6558-1.8428 15.1328 1.4915 7.133 5.2766 6.349 14.9226-.583 19.8032z"/><path d="m104.049 66.5465c-.91-.0256.215 1.02 1.101 1.2272 3.798.888 7.349 2.0739 9.499 5.9081 3.446 6.3812-2.93 11.1393-8.545 12.0861-4.89.9327-11.473-.5303-13.3932-5.9363-1.9815-5.684 6.1668-9.6671 9.8402-11.4972.802-.3227.11-1.4817-.554-1.1896-5 2.4143-11.8681 6.2608-10.6746 12.993 1.2097 6.1456 9.2876 8.4449 14.5166 7.7289 5.676-.6688 12.313-4.9016 11.737-11.4783-.608-6.7157-7.528-9.7075-13.527-9.8419z"/><path d="m104.103 72.0726c-.447-.0471-.741.6007-.372.9564.477.5888-.612 1.2927-.528.54.005-.0459.016-.0927.034-.1396.156-.6171-.769-.8503-.955-.3722-.666 1.6041.813 3.0269 2.387 2.2426 1.296-.7231 1.331-3.2083-.566-3.2272z"/><path d="m99.8547 77.2359c-.6942.1531-.7574 1.1872-.1407 1.3427 1.406.2677-1.7646 2.4103-2.1031 1.02-.0376-.1544-.035-.3401.0205-.5607.1857-.4782-.4922-.9116-.8168-.4028-.541.8479-.2958 1.9598.4128 2.5322.8781.6808 2.0502.7138 3.0996.1909.911-.4923 1.729-1.4016 1.623-2.544-.184-.8339-1.123-1.7926-2.0953-1.5783z"/><path d="m108.663 75.5849c-.447-.0471-.972.2143-.711.7396.323.8033 1.062 1.5147.522 2.3626-.433.6784-1.605.6454-1.511-.2497.016-.5865-.909-.8197-1.064-.2026-.327 1.8209 1.568 3.1518 3.251 2.1978.771-.4616 1.282-1.4486 1.206-2.4521-.076-1.0034-.629-2.193-1.693-2.3956z"/><path d="m110.664 34.4829c-1.571-1.8398-4.64-1.8917-6.722-1.4324-1.374.303-.149 2.7367-.586 4.0739-.692 2.119-2.202 3.7132-3.9927 5.5343-.3553.3698-.3409 1.0953.1676 1.4204 1.6341.8057 3.2981 1.7503 4.9311 2.5559.817.4028 1.695 1.0836 2.667.8693 2.083-.4593 2.566-4.2093 2.954-5.7522.573-2.0211 2.182-5.2905.581-7.2692zm-1.717 3.439c-.141 1.3427-.945 2.9774-1.363 4.3813-.089.2281-.164.5193-.253.8168-.188.628-.127 1.5225-.711 1.8203-.01.0052-.021.01-.031.0147-.368.1586-.809.1305-1.198.0368-.035-.0085-.07-.0186-.105-.0304-.252-.0852-.478-.2036-.731-.2853-1.642-.5304-1.791-2.7911-.8-4.2031.798-1.1372 1.36-2.3835 1.476-3.6929.095-1.0609.729-2.0395 1.761-1.7791 1.85.4664 2.096 1.5783 1.955 2.9209z"/><path d="m133.107 42.5041c-.335-.919-.915-1.754-1.648-2.4549-4.934-4.7117-14.293 1.4858-13.381 8.2468.625 4.8171 5.466 5.6441 9.509 4.1696s7.056-5.6367 5.52-9.9615zm-5.347 7.4458c-2.762 1.3378-7.019 1.8395-7.6-2.1132-.302-1.7654.032-3.7234.99-5.2148 1.293-2.0112 3.966-2.7007 6.339-2.409 1.388.1707 2.628.8151 3.474 2.4725 1.229 2.9351-.718 5.9878-3.203 7.2645z"/><path d="m125.581 42.5885c-.445.0255-.995-.3046-1.342-.0234-1.513 1.0623-2.642 3.2059-2.104 4.982.537 1.7761 2.17 2.5817 3.914 1.9057s3.042-2.7112 2.613-4.6569c-.432-1.3942-1.703-2.2862-3.081-2.2074zm1.399 3.1614c-.213 2.0287-3.94 2.977-3.866.9385.005-.1284.023-.2591.056-.3898.179-.9476.786-1.5276 1.299-2.2415.123-.1709.287-.1487.493-.1941 1.111-.2449 2.081.8528 2.018 1.8869z"/><path d="m150.351 62.6021c-.339-.2167-.756-.1248-1.141.106-2.553 1.5726-4.248 1.0981-5.213-1.5841-.329-.9136-.558-1.9398-.196-2.8411.375-.936 1.27-1.2689 2.683-.9985.669.1279 1.333.7707 1.954.4923.975-.4367.558-2.0563.07-3.0072-.227-.4439-.518-.8546-.735-1.2175-.662-1.02-1.432-1.8703-2.557-2.3509-.575-.224-1.194.39-1.783.5738-7.377 2.301-8.796 12.5097-2.606 17.154 2.634 2.0423 7.228 3.0695 10.023.5585 2.193-1.9409 1.982-5.5379-.499-6.8853zm.26 1.8374c.024.1088-.038.2365-.117.3683-.025.0409-.056.1682-.046.2149.002.0082.006.0381.004.0461-.042.1631-.123.3351-.195.5272-.134.354-.253.7203-.414 1.0626-.073.1551-.146.322-.221.4973-.316.7324-.829 1.4112-1.608 1.5815-1.379.3015-3.055-.1477-4.198-.6667-.088-.0399-.195-.0428-.277-.094-.098-.0612-.219-.0837-.319-.1409-.025-.0141-.049-.0273-.073-.0391-.151-.0741-.332-.1034-.473-.1939-.096-.0613-.192-.1225-.287-.1838-.134-.0854-.241-.1539-.334-.2208-.278-.1991-.457-.5233-.745-.7073-.288-.1841-.487-.4847-.688-.7608-3.001-4.1111-.511-10.1938 4.43-12.6755.13-.0655.317.1534.317.1534.05.2264.008.4732.024.7071.006.0973.081.1725.176.1963.094.0238.164.106.236.1723.078.0731.211.1344.396.1839.02.0053.039.0135.056.0236.054.031.119.0595.193.0863.138.0506.125.1135-.019.1452l-.416.0918c-.972.2144-1.852.8456-2.532 1.7242-.108.1696-.216.3392-.324.5088-.182.2856-.28.6397-.411.9522-.957 2.2863-.483 5.3845 2.466 7.0474.647.2944 1.125.4805 1.711.497.722.1193 1.261.0129 2.086.0852.071.0062.13.0583.145.1279.02.0892.111.1423.176.0783.15-.1472.256-.4455.337-.6355.038-.0879.106-.1573.157-.2381.03-.0461.054-.0983.074-.1529.121-.329.206-.9697.505-.7868.095.058.164.2183.208.4173z"/><path d="m127.419 62.2671-.139.0306c-1.835.2591-3.195 2.0163-2.797 3.823.399 1.8067 2.294 3.1376 4.099 2.7396 1.805-.3981 2.934-2.5416 2.396-4.3177-.506-1.6371-2.201-2.7207-3.559-2.2755zm.534 4.4002c-.803.3227-1.65-.2192-1.942-.8834-.112-.2778-.12-.5608-.05-.8257.27-1.0215 1.78-1.2138 2.508-.4478.21.2209.381.5042.423.806.076.5362-.308 1.0968-.939 1.3509z"/><path d="m138.226 86.8452c.139-.0306.17.1083 0 0 .17.1083.17.1083 0 0zm10.404-6.9581c-.212-.9629-.753-1.8498-1.284-2.6807-1.139-1.7829-3.505-2.2384-5.665-1.762-.139.0306-.447-.0471-.586-.0165-.277.0612-.694.1531-.972.2143-.513.1131-.881.3187-1.324.6651-.073.0576-.158.0991-.25.1193s-.059.0131-.092.0611c-.035.0517-.033.1019-.082.1411-.048.0393-.059.1304-.108.1696-.048.0393-.093.1483-.143.1854-.067.0494-.127.1282-.186.2154-.026.0387-.12.1174-.166.1274-.01.0023-.045.0131-.052.0206-.29.3044-.558.7002-.747 1.0952-.076.1606-.081.3278-.208.452-.07.0677-.125.1867-.164.2754-.042.0961-.098.1834-.153.2706-.163.2556-.221.5661-.358.8366-.009.0165-.018.0332-.029.0503-.163.2557-.116.5962-.184.8917-.068.2979-.096.6045-.109.9616-.002.0707.005.1326.017.2024.037.2265.015.4895-.066.7044-.011.0306-.027.0621-.048.0948-.108.1696.062.278.092.417.031.1389.062.2779.092.4169.031.139.062.278.092.4169l.061.278c.062.2779.092.4169.262.5253.169.1084.2.2473.231.3863.008.0394.026.0651.047.085.103.0966.084.2184-.026.3072l-.035.0282c-.022.0179-.019.0217-.046.0311-.095.0331-.014.1538.086.1647.087.0094.174.0272.224.0383.028.0062.056.0055.085.0072.023.0014.051.0076.076.0262.044.0334.045.0859.099.0739.026-.0057.103-.0117.125.0026.054.0344.162.1036.275.1756.019.012.025-.001.03.0208.011.0533.074.1654.12.1949.011.007.024.015.038.0239.026.0169.059.0227.089.0159l.369-.0813.139-.0306.069-.0153c.038-.0085.076.0158.085.0542.008.0383.046.0626.085.0541l.069-.0153c.139-.0306.308.0776.308.0778l.05.0318c.077.049.17.0655.259.0459 0 0 .138-.0306.277-.0612s.139-.0306.278-.0613l.139-.0306c.209-.0461.426.0517.64.0442.233-.0081.488-.0016.671-.0418.407-.0899.834.1075 1.242.0176l.346-.0764c1.206-.266 2.269-1.179 3.078-2.0596.058-.0634.123-.1209.18-.1848.132-.1456.204-.3221.272-.4629.039-.0828.048-.1862.096-.2644.061-.0986.097-.2204.176-.3053.333-.3594.729-.8333 1.016-1.2833.108-.1696.217-.3392.186-.4781l-.031-.139s-.03-.139-.061-.278c-.046-.2089.122-.3993.334-.4253.658-.0802.774-.4935.67-.9621.031.139.031.139 0 0zm-10.984 3.0054c-.048-.3359-.046-.6923-.002-1.0573.409-3.3685 4.911-5.8298 7.658-3.8373 2.573 1.7644.409 5.1563-1.52 6.3105-1.96 1.0152-5.74 1.7029-6.136-1.4159zm.58 3.9527c-.04.0626.016.1423.089.1263l.081-.018c-.077.017-.153-.0316-.17-.1083z"/><path d="m140.56 79.1737c-.058.0221-.105.0321-.159.0638-.237.14-.443.3662-.674.5157-.086.0554-.171.119-.254.1852-.085.0669-.164.1417-.228.228-.4.5323-.622 1.2651-.58 2.0643.135 1.2707 1.864 2.6203 3.097 1.6664.02-.0157.068-.0341.089-.0488.081-.057.138-.1529.234-.1749.972-.221 1.775-1.4363 1.722-2.4475-.01-.1793-.034-.3586-.063-.5357-.232-1.3772-1.821-2.0329-3.184-1.5165zm1.684 2.1219c-.006.2056-.07.3884-.173.5563-.368.602-1.45.6696-1.602-.0193-.107-.4863.47-.9006.782-1.1307.076-.0562.176-.0925.228-.1715.066-.1005.195-.0954.303-.0415.355.178.503.4161.462.8067z"/><path d="m83.2587 89.7859c-1.0026.0754-1.4353.7538-1.8681 1.4321-.9737 1.5264-2.2088 2.5275-4.0444 2.7866-.0846.0186-.1693.0373-.247.0874-.1048.0677-.18.2078-.2471.313-.0692.1086-.0944.2407-.063.3656.0276.1099.0596.213.1032.2978.0662.1284.2821.1378.3132.2788.167.7571.2195 1.5394.677 2.2323.0935.1416.1752.289.2618.4349.11.1856.232.382.3988.5188.201.1646.4042.2945.6382.4076.1929.0933.4005.2545.6098.2084.1388-.0307.2001.2473.339.2167.1388-.0306.2001.2473.3389.2167l.4165-.0919s.0001 0 .1389-.0306.1082-.1696.247-.2002c.788-.1738 1.5212-.5963 2.343-1.1758.0937-.0661.2068-.109.2891-.1889.0456-.0444.0884-.1011.1302-.1626.0512-.0753.1276-.1302.2165-.1498.1376-.0303.167-.2305.2643-.3325.3005-.3149.5861-.6265.7707-.9159.1807-.2832.4628-.5254.6311-.8161.2116-.3654.378-.7421.3895-1.1578.2489-1.5123-1.1503-4.5557-3.0471-4.5746zm1.0712 2.3502c.6874 1.0535.6552 2.5669-.2107 3.4792-.3351.3531-.736.6579-1.1167.9311-.88.6312-2.1151 1.6323-3.1014 1.1211-.087-.0429-.1674-.0938-.2423-.1517-1.0941-.8467.1593-2.4021 1.2341-3.2732.4941-.4005.9881-.8009 1.3127-1.3097.0714-.1119.1681-.3245.2817-.5576.3951-.8107 1.3498-.9945 1.8426-.2392z"/><path d="m68.451 93.3904c-.1738-.5786-.3911-1.1565-.7712-1.6262-.2001-.2473-.4003-.4947-.6004-.742-.8639-.8817-1.9107-1.4765-3.0087-1.7002-.1902-.0387-.3907-.0491-.5804-.0899-.1042-.0224-.2097-.0062-.3163-.0045-.6525.0106-1.2001.0167-1.814.2869-.4694.2066-.854.4675-1.203.7934-.2947.2753-.5298.5436-.8567.7797-.258.1863-.5681.3874-.8038.6011-1.5714 1.4245-2.8587 3.6142-2.5604 5.5801.0306.139.0613.278.0919.417.0613.2779-.1244.7561-.0631 1.0341.0306.1389-.0776.3085-.0469.4475.084.381-.0117.7992.0622 1.1826.1034.536.2907 1.004.5617 1.405.1925.284.4083.579.6977.764.2248.144.4605.31.6942.439 1.8937 1.045 4.6196.531 6.6931-.61.4693-.234.9142-.579 1.3564-.936.1037-.084.1929-.184.2646-.296.1149-.18.3359-.269.4784-.428.1517-.17.2988-.36.4582-.495.0136-.011.0299-.019.0473-.023.0087-.002.0202-.004.0355-.008.0425-.009.0723-.014.0742-.057.0028-.063.1561-.2002.1899-.2532.0087-.0137.0184-.0289.0292-.0457.4401-.69.6916-1.5207.9162-2.3077.3782-1.3254.3969-2.7008-.0258-4.108zm-2.7079 4.7762c-.2891.4532-.5521.9361-.9334 1.3151-.066.0656-.1348.1275-.2071.1859-.3051.2465-.6384.4944-1.0215.5784-.2162.048-.332.278-.5299.378-.1785.089-.381.167-.6277.315-.5948.262-1.1896.524-1.8285.585-.1482.014-.3488.043-.4967.027-.2415-.027-.4398-.032-.6706-.108-.2822-.093-.5247-.248-.7673-.403-.8474-.542-1.0926-1.6535-.9213-2.8572.1238-2.0278 1.0034-3.802 2.5811-5.5846.0612-.0692.1434-.117.2337-.1369.5984-.132 1.2998-.2867 1.9463-.3359.2031-.0155.4051-.0418.6088-.0402.3709.0029.7514-.0036 1.1113.0858.9824.2439 1.8341.8054 2.145 2.2149.4146 1.2202.1351 2.5935-.6222 3.7807z"/><path d="m61.4685 93.1084c-.0239.0214-.081.0451-.105.0664-.0731.0646-.1169.1539-.2122.1749-.0527.0116-.1055.0232-.1582.0349-.0563.0124-.1084.0387-.1512.0772-1.0757.9686-2.164 2.3627-1.6675 3.9673.6148 1.4675 2.326 1.9646 3.7919 1.3498 1.5741-.7843 2.4866-2.5887 1.9799-4.2258-.3034-1.3759-2.2697-2.5278-3.4777-1.4447zm1.5563 1.8074c.2096.3724.1398.8532-.0263 1.247-.2029.481-.6256.8952-1.0942 1.1015-.6635.292-1.3108-.0024-1.4641-.6973-.1784-.8091.5869-1.6891 1.0559-2.2334.0268-.0311.0238-.0202.0459-.0548.0405-.0634.156-.131.2194-.0905l.0258.0165c.019.0122.0404.0203.0626.0242.5032.0896.967.3171 1.175.6868z"/><path d="m43.1808 98.1872c-.6036-1.0104-2.1337-1.7057-3.2222-1.1321-.2894.1525-.7434.1755-.9666.4147-.0273.0292-.0493.0606-.0761.0901-1.1605 1.2776-2.3108 3.1211-1.2004 4.8931 1.062 1.515 3.2059 1.333 4.4411.332 1.374-1.031 1.9474-3.0525 1.0242-4.5978zm-1.6516 1.093c.8412 1.2368-1.8701 3.3068-2.5915 1.9958-.0176-.032-.0338-.066-.0483-.102-.1089-.271-.1037-.551-.0269-.83.3081-1.1191 1.9363-1.9665 2.6667-1.0638z"/><path d="m161.334 38.465c-4.848-6.8006-10.546-12.831-16.954-18.1217-5.33-4.3626-11.769-9.7924-18.613-11.78061-.308-.07774-.647-.29446-1.064-.20261-.209.04615-.419-.14119-.631-.11665-.11.01265-.219.04936-.32.10551-.528.29373-.739.99343-1.188 1.39747-18.463 16.60979-36.2402 33.77549-53.7926 51.31789-8.8337 8.7977-17.5284 17.5649-26.023 26.5794-2.4866 2.5887-5.0038 5.0384-7.4903 7.6271-4.8861 4.9412-9.6483 9.9612-13.9495 15.3502-1.4496 1.816-3.699 3.651-3.1985 5.92.2052.931 1.1297 2.103 2.1407 2.38.0904.025.1856.022.2772.002.2023-.045.4045-.09.6068-.134.1488-.033.3233-.125.4273-.236.2081-.223.44-.369.7434-.397 11.845-1.107 23.896-5.041 35.5397-7.609 9.6881-2.282 19.5151-4.595 29.2032-6.877.9719-.215 1.9437-.429 3.0545-.674 2.2214-.49 4.5817-1.01 6.7725-1.639 25.5776-5.932 51.3246-11.7557 76.9336-17.5488.076-.0173.152.0309.169.1075.05.2269.27-.0302.473.0836.059.0333.139.1326.253.3511.115.2191.158.0992.399.0459.139-.0306.139-.0306.247-.2002l.109-.1696c.108-.1696.077-.3086.185-.4782.109-.1696.047-.4475.155-.6171.165-.2579.087-.6021.155-.9003 3.385-14.8529-6.361-32.2587-14.62-43.5659zm-83.558 23.8197c.0112.0508.0224.1016.0389.1441.0426.1099.1818.1965.2072.3117.0035.0157.007.0314.0104.0471.0197.0891.1079.1454.197.1258.0694-.0154.1407.0155.1788.0756.2344.369.5764.8153.6605 1.1966.019.086.0114.1778-.0114.2687-.09.3594-.1971.715-.2679 1.0786-.0414.2129-.0331.4496-.0786.6615-.0254.1179-.0718.236-.1127.3875-.0074.0273-.0067.0563-.0083.0846-.0005.0071-.0013.0149-.0029.0229-.0171.0864-.1077.2275-.1881.2636-.0386.0173-.0413.0295-.0608.0671-.0904.1749-.1497.4354-.1223.5599l.0307.139c.0127.0577.0202.0914.0168.1233-.0143.1334-.091.2568-.1545.3749-.0371.0692-.0265.1588-.0494.2339-.0406.133-.0864.2424-.1307.3589-.0767.2022-.2247.4103-.1781.6214.0453.2056-.1382.4107-.2146.6069-.0497.1279-.0989.2586-.1569.3495-.0199.0312-.0398.0624-.0595.0945-.2093.3405-.344.725-.5589 1.062-.541.848-1.1126 1.557-1.823 2.2967-.2221.1799-.4193.4721-.7372.6971-.0724.0512-.1701.0767-.2203.1498-.0726.1056-.1906.1655-.2901.2461-.1395.1131-.2789.2261-.4184.3391-.1141.0925-.2354.176-.359.2553-.2871.1841-.5115.3543-.8312.5456-.6329.431-1.3433 1.1706-2.0069 1.4627-1.1883.5535-2.207 1.2154-3.4566 1.491l-.1388.0306c-.1389.0306-.3083-.0777-.4778-.1861-.1085-.0694-.24-.0913-.3671-.0702-.6962.1158-1.3412.0274-1.9821-.0771-.1086-.0177-.1989-.0057-.3048-.0355-.2208-.062-.4736-.1188-.6905-.1933-.0366-.0125-.0712-.0279-.1047-.0452-.1089-.056-.22-.1083-.3365-.1464-.2008-.0655-.3294-.1279-.439-.1037-.0913.0201-.1864.0199-.2756-.0083-.2285-.0723-.3897-.1595-.6494-.225-.1729-.0436-.3118-.1405-.4548-.231-.2253-.1424-.4765-.245-.7011-.3886-.2244-.1435-.4228-.3283-.6465-.4729-.0155-.01-.0311-.02-.0466-.0299-.2554-.1633-.5004-.3511-.7196-.5604-.0557-.0532-.1134-.1152-.1738-.1899-.197-.2434-.558-.5916-.7602-.8384-.0065-.0079-.0076-.0039-.0102-.0139-.0163-.0626-.0706-.2132-.0264-.2605.9774-1.0463 2.0605-2.0251 3.0599-3.0573.2085-.2153.5772-.1151.6417.1775.0812.3682.3379.7368.6194.9877.0134.0119.0274.0227.0424.0323.3558.2275.496.7062.8219.9747.1538.1266.3204.2332.4871.3397.1122.0718.2076.1674.3142.2474.1519.1139.3372.1757.5291.227.0944.0253.1842.065.2682.1151.097.0577.1915.104.2774.1119.0482.0044.0975.0118.1413.0324.0984.0462.1884.055.2839.0881.0496.0172.2154.0422.2666.0309.0026-.0006.0052-.0011.0077-.0016.2022-.0365.4047.1355.609.1571.2043.0215.4068.1936.609.157.0025-.0005.0051-.001.0077-.0016.211-.0465.4218.1173.6342.0776.1122-.021.222-.0534.3371-.0611.1343-.0091.2683.0284.4025.0188.3974-.0284.8313-.2301 1.1866-.3084.1388-.0307.4165-.0919.5553-.1225.2777-.0613.7249-.0141 1.0026-.0754.461-.1016.9139-.2497 1.3171-.4953.7297-.4446 1.2815-.9599 1.7085-1.6293.1082-.1696.247-.2002.3552-.3698s.2164-.3392.3246-.5088l.1082-.1696c.1082-.1696.1082-.1696.2164-.3392.0488-.0766.0915-.1816.1235-.2737.0456-.1311.1205-.2517.2283-.3391.0536-.0435.0997-.0952.141-.1504.1418-.1894.3945-.4946.342-.7326-.0306-.1389-.0306-.1389-.0612-.2779-.0393-.178-.0107-.3766-.0496-.5547-.0013-.0058-.0026-.0117-.0039-.0176-.0414-.1879-.0255-.3818-.0356-.574-.01-.1922.0255-.4087.0054-.6001-.0058-.0548-.0075-.1089-.0039-.1674.0108-.1751.0154-.3531.028-.5281.0106-.147.0414-.2811.0019-.4602-.0919-.4169-.045-.8645-.1063-1.1424-.1226-.5559-.2146-.9729-.3372-1.5288-.0613-.2779-.0919-.4169-.1532-.6949-.0466-.2113-.0933-.4226-.2009-.6205-.0691-.1271-.1335-.2575-.1729-.3967-.0257-.0906-.0552-.1603-.1033-.2185-.058-.0703-.1181-.1428-.1378-.2318-.0613-.2779-.2614-.5253-.3227-.8033-.023-.1044-.0657-.2045-.1189-.2946-.1514-.2561-.3645-.4971-.5083-.7575-.0151-.0273-.0295-.0555-.0429-.0854-.0452-.1017-.102-.2183-.1642-.3105-.1938-.287-.1562-.6752.087-.9218.0721-.073.1446-.1448.2171-.2161.444-.437 1.156-.4378 1.6493-.0572.0235.0182.0469.0358.0702.053.1011.0743.1945.1587.2807.2498.1347.1423.2605.2446.3993.406.0305.0354.0394.0263.0495.072s.0423.1404.0708.1775c.1029.1341.2126.2984.321.4573.1683.2467.4325.4625.4968.7542.0627.2839.3716.4709.6078.6406.6567.4717.7056.6935.7319.8128zm-6.538-.5985c.247-.2002.4634-.5394.5716-.709.1171-.1836.4693-.095.5491.1076.5279 1.3413.967 2.8059 1.2954 4.295l.0306.1389c.0613.278.1226.556.1839.8339.1839.8339.229 1.6984-.0037 2.6241-.0486.1936-.0973.3872-.1116.5733-.016.2065-.0613.441-.1118.6419-.0504.2009-.0853.3975-.1605.5905-.0311.0798-.0619.1608-.0947.2329-.0379.0832-.0802.1647-.1158.2489-.0786.1856-.1639.3506-.2633.5066-.2538.3978-.5567.7655-.8695 1.1187-1.0321 1.1652-2.6334 1.7816-4.1871 1.6179-.4471-.0471-1.0332-.0636-1.511-.2497-.3119-.1215-.5647-.2561-.8441-.4253-.3237-.1961-.6311-.4206-.8951-.6918-.2875-.2953-.5412-.6125-.7985-.9756-.1058-.1493-.1936-.3172-.3059-.4617-.0722-.0928-.109-.2057-.1626-.3104-.1638-.32-.3177-.5947-.4776-.8972-.1244-.2353-.0914-.5537.1303-.701.1185-.0788.2214-.1337.3227-.2336 1.8435-1.8181 3.6601-3.7583 5.5046-5.5719.0356-.035.0457-.0445.0902-.0671.0827-.0418.1131-.1952.1799-.2595zm102.31 15.9661c.176 2.0292-1.205 3.851-3.192 4.2988-1.751.3946-3.488.7989-5.243 1.2401-.695.1748-1.588-.4625-1.742-1.1625-.115-.5214-.23-1.0428-.549-1.399-.042-.0463-.055-.0672-.088-.1196-.045-.0704-.186-.0873-.265-.1143-.305-.1043-.613.1221-.654.5187-.017.5865.106 1.1424.198 1.5594.137.62-.232 1.5193-.851 1.6637-21.531 5.0274-42.964 9.8967-64.53 14.7953-13.0509 2.8781-26.1019 5.7561-39.1221 8.7731-11.6299 2.565-23.9734 4.342-35.1768 8.433-.8157.298-2.0454.374-2.2324-.474-.0897-.407.0005-.904.1838-1.354.2448-.601.8005-1.018 1.2632-1.473.5666-.558 1.1158-1.119 1.6512-1.706.0324-.035.0659-.071.1006-.108.2471-.2.4634-.539.7105-.739.9574-.94 2.0537-1.91 2.9806-2.989.6022-.57 1.2045-1.14 1.7761-1.849.6022-.57 1.0656-1.11 1.529-1.649.3283-.342.7489-.829 1.0912-1.192.0548-.058.1126-.136.1574-.202.1471-.218.372-.364.5499-.557.4119-.447.8819-.907 1.2597-1.347 3.384-3.523 6.6142-7.1443 9.8636-10.6502.3221-.3475.6932-.6618.9481-1.0612.1119-.1754.3189-.2921.4764-.428.044-.038.0869-.0811.1258-.1421.0608-.0953.0874-.137.0937-.1799.012-.0826.0073-.1703.0667-.2289.0083-.0081.017-.0162.0261-.0241.0737-.0639.1531-.1356.1769-.2302.0237-.0945.0996-.1864.1172-.2823.0248-.135.0141-.3296.1072-.3501.2098-.0463.3896-.0023.5436-.1519.8633-.8386 1.6506-1.5581 2.529-2.4203.9575-.9399 1.8068-1.7101 2.7642-2.6499.4634-.5394.8186-.9093 1.3127-1.3097.0178-.0144.0349-.0287.0514-.0429.3834-.3291.6588-.7484 1.1069-.982.1974-.1029.4134-.2449.5615-.411.1561-.1751.3076-.3711.4728-.505.3552-.3698.8187-.9092 1.374-1.0317.0002-.0001.1168-.0258.2195-.1607.0186-.0245.0455-.0413.0727-.0559.0255-.0137.043-.0326.0579-.0531.0436-.0601.2122-.2377.2522-.3003l.1082-.1696.1081-.1696s-.0306-.139-.0613-.278c.0307.139.0307.139.0613.278.2017.9142.7415 1.5982 1.3602 2.1659.4479.4109.8991.8304 1.4111 1.1578.1695.1084.339.2167.5085.3251.339.2167.6473.2945.9863.5112.7828.386 1.5093.5168 2.3827.7323.0753.0186.1936.0174.2683.0383.1276.0358.2273.052.3567.0235.0208-.0046.0421-.0093.0632-.014.0994-.0219.203-.0197.3023.0028 2.778.6295 5.4686-.7046 7.9448-2.1559.4434-.2599.9009-.5032 1.3002-.8268.1933-.1317.3867-.2634.576-.3942.8045-.5557 1.6028-1.1337 2.2801-1.8388.3552-.3698.7105-.7396.9575-.9398.3552-.3699.6798-.8787 1.0044-1.3874.1239-.1943.2478-.3885.3659-.6088.1897-.3538.3613-.7182.5771-1.0566.4827-.7566.645-1.6798.8963-2.5414.3677-1.2605.557-2.6012.5932-3.9081.0956-2.2071-.3641-4.2918-1.4567-5.9454-1.1828-1.7393-1.846-4.4471-.3488-5.9243 1.0034-.9899 2.008-1.9801 3.0446-2.9773 1.915-1.8797 3.8299-3.7594 5.7448-5.6391.2471-.2002.3553-.3698.6023-.57 14.4777-14.1738 38.9977-17.8211 52.5587-2.7681.447.4966.89 1.0041 1.327 1.5233.97 1.0977 1.971 2.3344 2.802 3.4628.479.8017 1.103 1.5102 1.667 2.2543.061.0807.126.1636.196.2497.4.4946.831 1.1283 1.262 1.762.831 1.1283 1.523 2.2873 2.216 3.4462.43.6337.892 1.4063 1.323 2.0399 1.185 2.0706 2.369 4.1412 3.446 6.3813.492.9116 1.015 1.9622 1.507 2.8738.876 1.9929 2.169 3.8938 2.659 6.1175l.776 3.5152c.013.0629.052.1177.106.1524s.091.09.108.152c.029.1049.078.2057.208.2885.03.139.061.278.091.4169l.031.139c.031.139.061.278.092.417.084.3798.168.7595.333 1.0112.031.0476.055.1006.084.1499.04.0702.106.135.151.2043.035.052.06.0889.12.1041.061.0153.146.0955.207.082s.122-.027.184-.0406c.078-.0172.147-.0644.188-.1328.081-.1332.144-.2623.12-.3723-2.712-12.9556-8.509-25.3766-16.884-35.6258-5.802-7.0156-13.63-14.6193-22.258-19.367-3.406-1.8741-4.469-6.6894-1.622-9.3367 1.852-1.7226 4.681-1.8718 6.813-.5093 3.618 2.3133 7.447 4.3218 10.822 6.835 6.285 4.7349 11.86 10.2093 16.864 16.3928 4.634 5.8277 8.665 12.2255 11.894 18.946 3.551 7.4714 4.866 14.3293 5.545 22.1494z"/><path d="m126.668 14.6306c-2.374-.205-4.259 1.8137-5.14 3.757-.511.987.845 1.8539 1.355.8669 1.082-1.696 2.657-2.4804 4.169-3.5427.386-.2308.063-1.0341-.384-1.0812z"/><path d="m128.854 17.9379c-1.111.2449-2.177 1.3544-3.057 1.9856-.602.5701.09 1.729.862 1.2674.633-.4114 1.332-.7809 1.918-1.2792.723-.6139 1.202-2.178.277-1.9738z"/><path d="m170.792 79.3718c.843-.6829-.982-1.3467-2.023-1.0403-.714.2105-1.401.545-2.109.7858-1.08.3839-.713 2.0517.367 1.6677 1.219-.4145 2.777-.6124 3.765-1.4132z"/><path d="m168.548 74.4746c-.525.2614-1.05.5229-1.544.9233-.633.431-.079 1.6206.523 1.0506.129-.105.271-.2025.414-.2985.776-.5182 1.442-2.0916.607-1.6754z"/><path d="m68.948 67.1463c-.2164.3392-.1244.7561.2146.9729.0725.0463.4742.3413.5183.4152.0063.0105.0114.0207.0152.0306.0045.0117.0099.0233.0171.0336.1053.1515.0335.3892-.093.5976-.1552.2556-.3549.4957-.5981.6695-.2054.1468-.4613.2263-.7413.1968-.6771-.0714.3137-1.2003-.2712-1.5489-.1496-.0891-.3357-.1154-.5131-.027-.9412.3533-1.2514 1.5876-.6203 2.4686.6923 1.1589 2.3115 1.2391 3.2996.4382 1.0188-.6619 1.8843-2.0187 1.5778-3.4084-.2452-1.1119-1.9401-2.1955-2.8056-.8387z"/><path d="m94.3446 56.8398c.0238-.3579-.1747-.6934-.3783-.9887-.4244-.6159-1.1398-1.1119-1.8067-.9649-.2777.0613-.4166.0919-.6942.1531-.0043.001-.0086.0021-.0128.0033-.2341.0665-.4745-.0416-.7121.0108l-.1388.0307c-.1389.0306-.2777.0612-.2777.0612-.1139.0251-.1344.0296-.1978.1242-.0323.0481-.0412.0695-.0474.1271-.0087.0824-.122.1695-.1479.2481-.193.5858-.6782 1.2447-.5356 1.8915l.0307.1389c.1226.556.2145.9729.3371 1.5288.0307.139.2308.3863.2615.5253.0306.139.2001.2473.2308.3863.0196.089.0738.1681.1294.2403.1683.2183.3871.666.5016.6407.0586-.0129.1171-.0258.1779-.0283.1819-.0075.3692.0534.547.0142.1388-.0306.4165-.0919.5553-.1225.1389-.0306.3084.0778.4472.0472.1389-.0307.247-.2003.3859-.2309l.4165-.0918c.1388-.0307.1082-.1696.2164-.3392l.1082-.1696c.1082-.1696.0775-.3086.0469-.4476-.0307-.139-.0613-.2779-.092-.4169s0 0-.0306-.139c-.0307-.139.3552-.3698.3245-.5088-.1092-.4952.2395-1.0039.3274-1.5033.0139-.0792.0232-.1524.0276-.2202zm-3.2994.9155c-.1042-.4724-.1081-.9669-.0782-1.3795.0028-.0388.1245-.0951.1632-.0983.0091-.0008.0294-.0011.0371.0038.5056.3177 1.0845.3381 1.3438.8592.6303 1.0551-1.2012 1.8149-1.4659.6148z"/></g></svg>